<svg width="92" height="92" viewBox="0 0 92 92" fill="none" xmlns="http://www.w3.org/2000/svg">
<rect width="92" height="92" fill="#1E1E1E"/>
<g filter="url(#filter0_d_0_1)">
<circle cx="46" cy="46" r="30" fill="#2F2926"/>
</g>
<path fill-rule="evenodd" clip-rule="evenodd" d="M48.0486 39.0488V41.7723H43.9511V39.0488C43.9511 37.9173 44.8684 37 45.9999 37C47.1314 37 48.0486 37.9173 48.0486 39.0488ZM41.9511 39.0488C41.9511 36.8127 43.7638 35 45.9999 35C48.2359 35 50.0486 36.8127 50.0486 39.0488V41.7723V42.4227H51.5428C52.6103 42.4227 53.4897 43.2612 53.5405 44.3276L53.9978 53.9314C54.0521 55.0721 53.142 56.0266 52.0001 56.0266H40C38.8581 56.0266 37.948 55.0721 38.0023 53.9314L38.4596 44.3276C38.5104 43.2612 39.3898 42.4227 40.4574 42.4227H41.9511V41.7723V39.0488ZM40.4574 44.4227H51.5428L52.0001 54.0266H40L40.4574 44.4227Z" fill="white"/>
<defs>
<filter id="filter0_d_0_1" x="0" y="0" width="92" height="92" filterUnits="userSpaceOnUse" color-interpolation-filters="sRGB">
<feFlood flood-opacity="0" result="BackgroundImageFix"/>
<feColorMatrix in="SourceAlpha" type="matrix" values="0 0 0 0 0 0 0 0 0 0 0 0 0 0 0 0 0 0 127 0" result="hardAlpha"/>
<feOffset/>
<feGaussianBlur stdDeviation="8"/>
<feColorMatrix type="matrix" values="0 0 0 0 0 0 0 0 0 0 0 0 0 0 0 0 0 0 0.12 0"/>
<feBlend mode="normal" in2="BackgroundImageFix" result="effect1_dropShadow_0_1"/>
<feBlend mode="normal" in="SourceGraphic" in2="effect1_dropShadow_0_1" result="shape"/>
</filter>
</defs>
</svg>
