<svg width="169" height="667" viewBox="0 0 169 667" fill="none" xmlns="http://www.w3.org/2000/svg">
<g clip-path="url(#clip0_8_2)">
<path d="M53.2389 324.365C53.2389 324.365 69.6818 107.47 4.54655 -15.9413C-17.5492 -57.8185 -43.0807 -84.2228 -67.1876 -100.812C-117.438 -135.416 -185.503 -103.475 -191.639 -42.4273C-194.584 -13.1507 -191.016 23.5474 -173.493 67.5785C-121.845 197.324 53.2389 324.365 53.2389 324.365Z" fill="#2F8C91"/>
<path d="M-105.228 -8.90547C-101.171 -0.162919 -97.1312 8.57526 -93.0742 17.3178C-114.342 45.6174 -135.627 73.9127 -156.899 102.23C-156.35 103.222 -155.8 104.215 -155.229 105.194C-134.017 76.9728 -112.804 48.7517 -91.592 20.5307C-87.7666 28.788 -83.9282 37.0672 -80.1028 45.3246C-100.023 72.7255 -121.132 99.2121 -143.372 124.688C-142.78 125.58 -142.21 126.485 -141.618 127.377C-119.472 102.062 -98.4644 75.7724 -78.6076 48.5593C-74.9265 56.5019 -71.2454 64.4445 -67.5643 72.3871C-87.5402 97.4942 -107.512 122.584 -127.488 147.691C-126.853 148.557 -126.219 149.422 -125.567 150.292C-105.749 125.386 -85.9094 100.467 -66.0911 75.5607C-62.2265 83.8836 -58.3833 92.2196 -54.5187 100.542C-71.1535 125.592 -88.7913 149.941 -107.411 173.503C-106.73 174.325 -106.066 175.142 -105.38 175.947C-86.9517 152.652 -69.4751 128.595 -52.9843 103.843C-49.0146 112.415 -45.0449 120.987 -41.058 129.563C-56.303 151.853 -72.4821 173.46 -89.5572 194.301C-88.8675 195.088 -88.1564 195.862 -87.4666 196.649C-70.6044 176.087 -54.6121 154.804 -39.5366 132.842C-36.3015 139.818 -33.0705 146.812 -29.8354 153.789C-42.8002 174.49 -56.6771 194.57 -71.4322 213.963C-70.6997 214.724 -69.9844 215.481 -69.2518 216.242C-54.7221 197.181 -41.0617 177.472 -28.279 157.151C-24.3313 165.661 -20.3836 174.172 -16.4359 182.683C-25.85 201.452 -37.208 219.097 -50.3224 235.368C-49.5815 236.094 -48.8406 236.82 -48.0825 237.55C-35.2619 221.668 -24.1241 204.486 -14.7791 186.237C-13.4412 189.135 -12.0861 192.038 -10.7482 194.936C-10.7913 195.499 -10.5805 196.072 -10.0487 196.448C-9.06952 198.551 -8.10754 200.649 -7.12833 202.752C-14.3073 219.662 -24.3923 235.036 -36.9578 248.24C-36.1955 248.953 -35.4505 249.661 -34.6882 250.374C-22.524 237.55 -12.6325 222.757 -5.39259 206.511C-2.43716 212.897 0.522441 219.266 3.47788 225.653C-3.46592 238.972 -11.3474 251.7 -20.1369 263.789C-19.3532 264.489 -18.5867 265.185 -17.803 265.885C-9.31572 254.219 -1.6716 241.949 5.10851 229.163C7.86265 235.09 10.5954 241.031 13.3495 246.958C7.38945 255.005 1.45078 263.038 -4.50929 271.084C-5.48411 272.412 -6.49756 273.748 -7.47238 275.075C-6.68452 275.757 -5.91389 276.435 -5.14327 277.113C-3.68313 275.131 -2.19686 273.193 -0.745057 271.246C4.45729 264.23 9.64241 257.209 14.8448 250.193C17.1749 255.216 19.492 260.216 21.8221 265.239C17.7546 273.322 13.3632 281.23 8.62181 288.92C9.4269 289.607 10.2362 290.276 11.0282 290.941C15.468 283.749 19.6226 276.374 23.4706 268.828C26.1855 274.69 28.9046 280.534 31.6023 286.392C28.9087 291.322 26.0118 296.107 22.8772 300.74C23.7037 301.414 24.5172 302.065 25.3134 302.713C28.1161 298.552 30.7672 294.26 33.2241 289.862C34.8678 293.394 36.4942 296.922 38.1379 300.454C36.5644 303.371 35.0082 306.292 33.4388 309.192C34.2826 309.87 35.1002 310.504 35.9006 311.134C37.1855 308.737 38.4705 306.34 39.7513 303.96C42.2038 309.236 44.639 314.508 47.0874 319.801C51.0364 322.789 53.2201 324.365 53.2201 324.365C53.2201 324.365 53.4281 321.73 53.6883 316.885C50.9602 311.001 48.2322 305.117 45.5042 299.234C48.3584 300.757 51.3055 302.045 54.3156 303.144C54.3505 302.078 54.3897 300.995 54.4371 299.876C50.5855 298.396 46.8345 296.57 43.2311 294.355C41.3208 290.255 39.4318 286.142 37.5215 282.041C43.0831 285.014 48.8257 287.458 54.7492 289.373C54.7841 288.307 54.8018 287.237 54.8279 286.131C48.5936 284.063 42.5266 281.369 36.7304 278.078C36.3459 277.85 35.9673 277.828 35.6195 277.906C32.1219 270.344 28.6202 262.799 25.1226 255.237C34.9739 259.616 44.9687 263.624 55.0813 267.291C55.0859 266.199 55.0948 265.089 55.0863 263.975C44.2879 260.041 33.624 255.696 23.1291 250.949C19.9771 244.16 16.8293 237.354 13.6773 230.565C27.3024 236.368 41.084 241.822 54.9662 246.931C54.9578 245.817 54.928 244.716 54.9065 243.579C40.373 238.212 25.9656 232.47 11.7058 226.338C7.84121 218.015 3.9808 209.675 0.116218 201.352C17.9188 209.646 36.0172 217.236 54.3726 224.132C54.3297 223.009 54.2868 221.886 54.2481 220.745C35.2283 213.569 16.4822 205.629 -1.94258 196.955C-4.49126 191.469 -7.03576 185.965 -9.58444 180.479C11.3126 186.224 32.2095 191.969 53.1065 197.714C53.0381 196.622 52.9696 195.529 52.9053 194.419C31.5127 188.53 10.1159 182.658 -11.294 176.764C-16.2299 166.111 -21.1657 155.458 -26.1015 144.805C-0.786065 156.475 25.1208 166.738 51.5027 175.547C51.4081 174.411 51.3094 173.293 51.2148 172.157C24.2202 163.08 -2.26967 152.502 -28.13 140.434C-32.6591 130.682 -37.1709 120.934 -41.6958 111.164C-11.9811 119.95 17.7508 128.741 47.4655 137.527C47.315 136.395 47.1818 135.268 47.0272 134.153C16.8685 125.236 -13.2901 116.318 -43.4529 107.418C-45.1798 103.698 -46.9066 99.9779 -48.6162 96.2623C-50.7189 91.7424 -52.8002 87.2094 -54.903 82.6895C-22.1724 91.6316 10.5755 100.578 43.306 109.52C43.1169 108.397 42.932 107.257 42.7257 106.129C9.61588 97.0905 -23.5069 88.03 -56.6167 78.9914C-59.8518 72.0148 -63.087 65.0383 -66.3221 58.0617C-32.0019 63.9426 2.31828 69.8235 36.6426 75.687C36.3935 74.5857 36.1443 73.4844 35.878 72.3787C1.46742 66.4933 -32.939 60.5905 -67.3495 54.7051C-67.5433 54.6743 -67.7109 54.6873 -67.8785 54.7002C-72.4996 44.7206 -77.1249 34.7585 -81.746 24.7788C-44.7523 32.1742 -7.76274 39.5871 29.231 46.9824C28.8956 45.8592 28.5645 44.7185 28.2292 43.5952C-8.97138 36.1472 -46.1719 28.6992 -83.3766 21.2687C-86.8392 13.7895 -90.3059 6.32768 -93.7684 -1.15157C-57.2626 2.00517 -20.7354 5.14881 15.7705 8.30555C15.3192 7.20842 14.8638 6.12876 14.3911 5.04471C-22.1706 1.89229 -58.7453 -1.28199 -95.307 -4.43442C-98.984 -12.3945 -102.682 -20.3415 -106.359 -28.3016C-71.0362 -29.1526 -35.6808 -27.9938 -0.452341 -24.8471C-1.09735 -25.975 -1.72928 -27.081 -2.38263 -28.174C-37.4513 -31.2244 -72.6426 -32.3044 -107.802 -31.3746C-113.791 -44.2786 -119.759 -57.1957 -125.748 -70.0997C-94.1192 -70.9458 -62.4744 -70.2495 -30.9088 -68.0721C-31.9152 -69.2178 -32.9127 -70.3243 -33.9274 -71.4351C-64.7953 -73.4719 -95.7339 -74.0627 -126.636 -73.1984C-126.821 -73.1898 -126.992 -73.1594 -127.155 -73.0897C-129.682 -78.5144 -132.187 -83.9523 -134.714 -89.3771C-109.513 -91.1734 -84.3166 -92.9523 -59.133 -94.753C-60.3962 -95.7417 -61.6678 -96.6955 -62.9263 -97.6274C-87.3277 -95.8871 -111.729 -94.1467 -136.126 -92.4238C-138.61 -97.8005 -141.11 -103.182 -143.598 -108.541C-145.797 -107.599 -147.969 -106.54 -150.085 -105.41C-149.399 -103.92 -148.712 -102.429 -148.026 -100.938C-162.256 -83.8212 -176.487 -66.704 -190.713 -49.6042C-191.085 -47.6603 -191.376 -45.677 -191.618 -43.663C-176.599 -61.7101 -161.598 -79.7615 -146.574 -97.8261C-144.358 -93.0177 -142.12 -88.2224 -139.903 -83.414C-157.485 -61.9047 -175.054 -40.3736 -192.635 -18.8644C-192.602 -17.3177 -192.539 -15.7447 -192.458 -14.1673C-174.459 -36.2004 -156.455 -58.251 -138.439 -80.2798C-134.989 -72.8224 -131.535 -65.3825 -128.086 -57.9251C-148.466 -33.8845 -168.828 -9.83961 -189.208 14.2009C-188.97 15.5032 -188.732 16.8055 -188.464 18.134C-167.854 -6.18158 -147.262 -30.5015 -126.656 -54.7996C-123.635 -48.3039 -120.636 -41.7951 -117.615 -35.2994C-117.532 -35.1114 -117.445 -34.9409 -117.362 -34.753C-137.773 -8.05161 -159.543 17.5255 -182.582 41.9085C-182.251 43.0492 -181.902 44.1943 -181.537 45.3438C-158.352 20.8866 -136.449 -4.78646 -115.892 -31.562C-115.508 -30.7227 -115.123 -29.8834 -114.734 -29.0616C-114.689 -28.8649 -114.606 -28.677 -114.493 -28.537C-111.971 -23.0948 -109.448 -17.6526 -106.93 -12.1929C-126.7 18.0264 -147.892 47.2349 -170.421 75.3803C-169.944 76.4469 -169.488 77.5265 -168.994 78.5975C-146.263 50.4479 -125.058 21.2613 -105.228 -8.90547Z" fill="#286F7F"/>
<path d="M-6.7518 297.104C-6.7518 297.104 -109.211 411.356 -138.218 513.136C-148.06 547.682 -149.703 575.181 -147.563 596.435C-143.113 640.773 -102.208 656.354 -72.782 624.948C-58.6646 609.882 -43.8229 587.423 -31.2229 553.918C5.88618 455.24 -6.7518 297.104 -6.7518 297.104Z" fill="#BAE3DD"/>
<path d="M-91.9362 563.395C-89.6554 556.458 -87.3896 549.533 -85.1087 542.596C-64.2189 537.133 -43.3183 531.674 -22.4285 526.212C-22.2031 525.384 -21.9887 524.552 -21.7743 523.721C-42.6124 529.167 -63.4505 534.614 -84.2777 540.063C-82.1305 533.511 -79.9682 526.947 -77.821 520.394C-57.8545 514.777 -37.8332 510.247 -17.8104 506.866C-17.641 506.068 -17.4715 505.27 -17.3062 504.486C-37.2148 507.839 -57.131 512.291 -76.9816 517.833C-74.9198 511.537 -72.843 505.23 -70.7812 498.935C-51.8168 494.634 -32.8417 490.338 -13.8773 486.037C-13.7404 485.229 -13.6077 484.436 -13.4817 483.625C-32.3059 487.889 -51.1301 492.153 -69.9543 496.417C-67.7796 489.81 -65.6199 483.213 -63.4453 476.606C-45.812 470.691 -28.1027 465.664 -10.3473 461.548C-10.2513 460.759 -10.1511 459.956 -10.0551 459.167C-27.6145 463.217 -45.1345 468.159 -62.5743 473.976C-60.3458 467.18 -58.1131 460.37 -55.8737 453.578C-40.0097 448.526 -24.083 444.327 -8.13448 441C-8.06431 440.219 -7.99 439.424 -7.91983 438.643C-23.6506 441.91 -39.3664 446.032 -55.0111 450.977C-53.1906 445.441 -51.3809 439.903 -49.5604 434.368C-35.2934 429.084 -20.9554 424.623 -6.56407 420.965C-6.51561 420.178 -6.46716 419.39 -6.40784 418.606C-20.5515 422.182 -34.6635 426.554 -48.6812 431.709C-46.4651 424.957 -44.249 418.204 -42.0329 411.452C-30.0214 405.516 -17.7454 401.169 -5.38181 398.454C-5.34835 397.677 -5.32576 396.898 -5.2923 396.121C-17.3715 398.75 -29.3465 402.952 -41.1081 408.634C-40.3542 406.33 -39.6045 404.041 -38.8397 401.74C-38.5775 401.442 -38.3948 401.01 -38.4483 400.538C-37.9026 398.879 -37.3527 397.205 -36.8069 395.546C-26.4897 389.552 -15.7238 385.864 -4.93786 384.621C-4.91526 383.841 -4.90765 383.073 -4.88505 382.293C-15.3489 383.524 -25.789 386.98 -35.8257 392.572C-34.1637 387.508 -32.5057 382.458 -30.8436 377.394C-22.2175 373.309 -13.4796 370.029 -4.67333 367.54C-4.67244 366.754 -4.66484 365.986 -4.65309 365.203C-13.16 367.593 -21.5861 370.732 -29.9272 374.605C-28.3795 369.899 -26.8319 365.193 -25.2992 360.499C-19.4037 358.905 -13.4933 357.3 -7.59777 355.706C-6.62354 355.435 -5.64261 355.182 -4.66838 354.911C-4.67163 354.139 -4.67489 353.368 -4.68229 352.61C-6.12862 353.005 -7.57754 353.368 -9.00888 353.752C-14.1628 355.146 -19.3059 356.544 -24.4599 357.938C-23.1561 353.961 -21.8523 349.983 -20.5486 346.006C-15.3661 343.441 -10.1388 341.172 -4.88015 339.165C-4.89012 338.375 -4.91509 337.597 -4.93334 336.836C-9.86934 338.706 -14.7548 340.811 -19.6197 343.173C-18.0886 338.526 -16.5725 333.889 -15.0414 329.241C-11.8046 327.785 -8.54151 326.525 -5.25886 325.444C-5.28382 324.666 -5.3088 323.888 -5.34205 323.138C-8.2953 324.099 -11.2248 325.224 -14.1332 326.481C-13.2126 323.677 -12.292 320.873 -11.3714 318.07C-9.47035 317.199 -7.55846 316.332 -5.65328 315.447C-5.68496 314.651 -5.72492 313.883 -5.75818 313.134C-7.32152 313.855 -8.89158 314.559 -10.4549 315.28C-9.07814 311.089 -7.7055 306.912 -6.32871 302.721C-6.5824 299.074 -6.75003 297.104 -6.75003 297.104C-6.75003 297.104 -7.9957 298.488 -10.2404 301.095C-11.7756 305.757 -13.2999 310.422 -14.8393 315.099C-15.2855 312.825 -15.8775 310.647 -16.5745 308.549C-17.0582 309.125 -17.5569 309.713 -18.068 310.345C-17.1986 313.078 -16.5392 315.968 -16.1074 318.993C-17.1823 322.253 -18.2422 325.502 -19.3171 328.763C-20.1883 324.346 -21.3729 320.117 -22.8507 316.13C-23.3277 316.725 -23.8156 317.316 -24.3184 317.919C-22.7833 322.159 -21.5864 326.675 -20.7697 331.405C-20.7181 331.72 -20.5791 331.935 -20.4153 332.063C-22.3792 338.058 -24.3541 344.05 -26.318 350.045C-28.2534 342.71 -30.4055 335.514 -32.7702 328.442C-33.2514 329.051 -33.7475 329.672 -34.2369 330.31C-31.7277 337.866 -29.461 345.568 -27.4343 353.45C-29.2026 358.844 -30.9708 364.237 -32.7458 369.613C-35.5454 359.61 -38.5468 349.734 -41.739 339.989C-42.2284 340.627 -42.7029 341.254 -43.1964 341.906C-39.8514 352.107 -36.7272 362.46 -33.8347 372.964C-36.0093 379.571 -38.1732 386.182 -40.3437 392.775C-43.6738 379.307 -47.4398 366.085 -51.6093 353.118C-52.092 353.774 -52.5747 354.43 -53.0574 355.086C-48.7542 368.534 -44.8954 382.256 -41.4958 396.263C-42.9331 400.625 -44.3555 404.975 -45.7887 409.322C-51.4624 395.758 -57.1403 382.208 -62.8141 368.643C-63.2709 369.291 -63.7278 369.939 -64.1887 370.601C-58.3725 384.492 -52.567 398.38 -46.7466 412.256C-49.5167 420.697 -52.291 429.151 -55.0611 437.592C-59.8399 418.51 -65.4947 399.933 -71.9729 381.925C-72.4381 382.602 -72.8965 383.297 -73.3658 383.988C-66.7673 402.442 -61.033 421.483 -56.1982 441.069C-58.7436 448.807 -61.2782 456.548 -63.8194 464.271C-71.6138 444.636 -79.4081 425.002 -87.2133 405.365C-87.6542 406.08 -88.0909 406.782 -88.5317 407.497C-80.6191 427.419 -72.6957 447.344 -64.7831 467.266C-65.756 470.211 -66.718 473.16 -67.6909 476.105C-68.872 479.695 -70.053 483.285 -71.2191 486.863C-80.1409 465.645 -89.0559 444.444 -97.9777 423.225C-98.4009 423.962 -98.8201 424.684 -99.2434 425.421C-90.2235 446.874 -81.2036 468.327 -72.177 489.797C-73.9975 495.332 -75.8072 500.871 -77.6277 506.406C-88.5229 486.146 -99.4249 465.868 -110.32 445.608C-110.711 446.355 -111.102 447.102 -111.481 447.851C-100.555 468.168 -89.6289 488.485 -78.7027 508.801C-78.6407 508.914 -78.5704 508.999 -78.4919 509.054C-81.087 516.965 -83.6821 524.877 -86.2881 532.785C-97.5592 510.334 -108.834 487.899 -120.106 465.448C-120.476 466.248 -120.847 467.048 -121.206 467.851C-109.873 490.415 -98.5335 512.996 -87.2004 535.559C-89.1437 541.482 -91.0869 547.405 -93.0343 553.342C-106.003 533.523 -118.964 513.721 -131.932 493.902C-132.242 494.737 -132.545 495.588 -132.843 496.426C-119.858 516.266 -106.872 536.106 -93.8969 555.943C-95.9629 562.253 -98.0397 568.56 -100.106 574.87C-114.377 557.912 -127.771 539.788 -140.238 520.609C-140.486 521.556 -140.723 522.507 -140.955 523.443C-128.509 542.49 -115.143 560.464 -100.912 577.315C-104.269 587.559 -107.633 597.786 -110.99 608.03C-123.798 592.884 -135.944 576.869 -147.401 560.056C-147.517 561.201 -147.613 562.32 -147.709 563.439C-136.471 579.823 -124.564 595.436 -112.029 610.216C-111.948 610.303 -111.87 610.358 -111.78 610.417C-113.19 614.724 -114.611 619.028 -116.021 623.335C-126.731 611.908 -137.426 600.469 -148.136 589.042C-148.074 590.225 -148.003 591.379 -147.91 592.54C-137.546 603.61 -127.183 614.681 -116.808 625.754C-118.205 630.018 -119.603 634.281 -121.011 638.541C-119.721 639.106 -118.407 639.583 -117.067 639.973C-116.68 638.785 -116.297 637.612 -115.899 636.427C-102.723 633.8 -89.5579 631.17 -76.382 628.544C-75.3749 627.622 -74.3771 626.651 -73.4036 625.641C-87.2935 628.412 -101.194 631.181 -115.084 633.953C-113.83 630.149 -112.583 626.327 -111.329 622.524C-94.8931 619.061 -78.4575 615.599 -62.0151 612.154C-61.3452 611.256 -60.671 610.343 -60.0036 609.413C-76.8405 612.959 -93.6774 616.504 -110.51 620.035C-108.571 614.127 -106.632 608.219 -104.693 602.311C-86.0407 598.812 -67.3843 595.3 -48.7322 591.801C-48.254 590.955 -47.7717 590.095 -47.2853 589.22C-66.1511 592.764 -85.0168 596.307 -103.883 599.851C-102.196 594.7 -100.494 589.538 -98.8067 584.387C-98.7653 584.242 -98.713 584.101 -98.6607 583.959C-78.8181 578.982 -58.9312 575.292 -39.0774 572.913C-38.7027 572.098 -38.3388 571.281 -37.9641 570.466C-57.9047 572.819 -77.8894 576.479 -97.823 581.445C-97.6107 580.786 -97.3834 580.115 -97.1711 579.456C-97.0971 579.321 -97.0556 579.177 -97.0401 579.04C-95.626 574.718 -94.2011 570.4 -92.787 566.079C-71.6347 558.793 -50.3713 552.768 -29.0527 548.033C-28.7648 547.192 -28.477 546.352 -28.1891 545.511C-49.5196 550.163 -70.7855 556.156 -91.9362 563.395Z" fill="#97C9CE"/>
<path d="M14.7703 354.199C15.0233 354.165 15.2755 354.105 15.5154 354.059C15.5531 354.045 15.5916 354.056 15.6293 354.042C15.8692 353.996 16.1091 353.949 16.3359 353.89C16.3613 353.889 16.3989 353.875 16.4243 353.874C16.6765 353.815 16.9164 353.768 17.1555 353.696C17.2063 353.694 17.2562 353.667 17.307 353.665C17.546 353.593 17.786 353.547 18.025 353.475C18.0627 353.461 18.1135 353.459 18.1511 353.445C18.3902 353.373 18.6292 353.301 18.8683 353.229L18.8806 353.216C19.1196 353.144 19.3709 353.058 19.5969 352.974C19.6345 352.96 19.6722 352.946 19.7098 352.932C19.9358 352.848 20.1617 352.763 20.3876 352.679C20.4253 352.665 20.4629 352.651 20.5129 352.623C20.7388 352.539 20.977 352.442 21.2029 352.357C21.2152 352.344 21.2283 352.356 21.2406 352.343C21.4665 352.259 21.6793 352.162 21.8921 352.065C21.9298 352.051 21.942 352.038 21.9797 352.024C22.1925 351.927 22.4053 351.831 22.6304 351.721C22.668 351.707 22.7057 351.693 22.7433 351.679C22.9561 351.582 23.1812 351.472 23.3809 351.363C23.3932 351.35 23.4186 351.349 23.4431 351.323C23.6559 351.226 23.8678 351.104 24.0675 350.995C24.0798 350.982 24.0929 350.994 24.1052 350.981C24.3048 350.872 24.5168 350.749 24.7165 350.64C24.7541 350.626 24.7786 350.6 24.804 350.599C25.0037 350.49 25.1903 350.369 25.3899 350.26C25.4022 350.247 25.4399 350.233 25.4521 350.219C25.8506 349.976 26.236 349.72 26.6213 349.464C26.6336 349.451 26.6713 349.437 26.6835 349.424C26.8701 349.302 27.0435 349.169 27.2169 349.035C27.2292 349.022 27.2537 348.995 27.2791 348.995C27.6513 348.726 27.9851 348.447 28.3188 348.167C28.3311 348.154 28.3311 348.154 28.3433 348.141C28.5036 347.995 28.6648 347.874 28.8251 347.728C28.8373 347.715 28.8496 347.702 28.8619 347.689C29.0222 347.543 29.1702 347.41 29.3305 347.264C29.6257 346.973 29.9209 346.682 30.1907 346.391C30.203 346.378 30.2152 346.365 30.2152 346.365C30.3501 346.22 30.4719 346.062 30.5946 345.931L30.6068 345.917C30.8635 345.615 31.0825 345.326 31.3007 345.012L31.313 344.999C31.4225 344.855 31.5189 344.698 31.603 344.555L31.6153 344.542C31.8922 344.085 32.1314 343.643 32.319 343.176L32.3313 343.163C32.5066 342.71 32.6443 342.271 32.7312 341.834L32.7435 341.821C32.7768 341.679 32.7847 341.538 32.8049 341.384C32.8331 341.089 32.8368 340.821 32.8141 340.528C32.7967 340.388 32.7924 340.261 32.7496 340.121C32.7496 340.121 32.7496 340.122 32.7364 340.109C32.395 338.281 30.8566 336.763 27.8145 335.883C13.8998 331.836 -1.11828 342.147 -6.39286 346.287C-5.4932 343.574 -4.64432 340.862 -3.82169 338.126C-3.26216 336.255 -2.72803 334.384 -2.19389 332.514L-1.45624 329.895C0.469914 322.957 2.31903 315.996 4.33535 309.093C4.42637 309.154 4.51741 309.215 4.59617 309.289C4.84385 309.472 5.07841 309.643 5.3261 309.826C5.46963 309.936 5.6123 310.021 5.75584 310.131C5.97727 310.289 6.19784 310.422 6.41927 310.581C6.57507 310.677 6.73087 310.774 6.88666 310.871C7.10723 311.004 7.31554 311.15 7.52298 311.271C7.67878 311.368 7.83458 311.465 8.00264 311.548C8.21008 311.669 8.43065 311.802 8.65036 311.91C8.80616 312.006 8.96109 312.078 9.12915 312.161C9.34886 312.269 9.55631 312.39 9.77602 312.497C9.93095 312.568 10.099 312.652 10.2417 312.737C10.4614 312.844 10.6811 312.951 10.9131 313.046C11.068 313.117 11.2229 313.188 11.3648 313.247C11.5967 313.342 11.8287 313.436 12.0738 313.543C12.2156 313.602 12.3574 313.661 12.4992 313.72C12.7697 313.825 13.0271 313.919 13.2976 314.025C13.4131 314.059 13.5164 314.107 13.6197 314.154C13.9926 314.282 14.3655 314.41 14.7507 314.524C14.7761 314.523 14.8023 314.548 14.8277 314.547C15.1744 314.65 15.5211 314.753 15.8677 314.857C15.9833 314.891 16.1111 314.912 16.2267 314.946C16.4832 315.014 16.7397 315.082 16.983 315.138C17.124 315.171 17.2649 315.205 17.4059 315.238C17.6361 315.282 17.8672 315.35 18.0975 315.394C18.2384 315.427 18.3916 315.447 18.5448 315.468C18.7751 315.511 18.9922 315.542 19.2224 315.585C19.3756 315.605 19.5289 315.626 19.6698 315.659C19.8869 315.69 20.104 315.721 20.3212 315.752C20.4744 315.772 20.6276 315.793 20.7808 315.813C20.9979 315.844 21.2273 315.861 21.4313 315.88C21.5845 315.9 21.7246 315.908 21.8778 315.929C22.1072 315.946 22.3234 315.952 22.5528 315.969C22.6929 315.977 22.833 315.985 22.9731 315.993C23.2024 316.011 23.4441 316.016 23.6857 316.02C23.8127 316.016 23.9274 316.025 24.0675 316.033C24.3345 316.036 24.6138 316.027 24.8808 316.03C24.957 316.028 25.0463 316.038 25.1348 316.022C25.4902 316.01 25.8457 315.998 26.2012 315.985C26.252 315.984 26.2896 315.97 26.3281 315.981C26.6328 315.971 26.9367 315.935 27.2414 315.924C27.3552 315.908 27.469 315.891 27.5837 315.9C27.8245 315.879 28.0399 315.859 28.2675 315.825C28.4068 315.808 28.5206 315.791 28.6598 315.774C28.8752 315.754 29.0775 315.721 29.2797 315.689C29.419 315.671 29.5582 315.654 29.6843 315.624C29.8865 315.591 30.0888 315.559 30.2657 315.527C30.4049 315.51 30.5432 315.467 30.6825 315.449C30.8716 315.404 31.0616 315.385 31.2507 315.34C31.39 315.323 31.5283 315.28 31.6675 315.262C31.8567 315.217 32.0458 315.173 32.2227 315.141C32.3488 315.111 32.5003 315.08 32.6264 315.051C32.8155 315.006 32.9915 314.949 33.1807 314.904C33.3068 314.874 33.4451 314.831 33.5712 314.801C33.7603 314.756 33.9486 314.686 34.1378 314.641C34.2507 314.599 34.3768 314.569 34.4898 314.527C34.7034 314.456 34.9049 314.398 35.1185 314.327C35.2192 314.298 35.2945 314.27 35.3952 314.241C35.6842 314.141 35.9732 314.042 36.2613 313.917C36.3489 313.876 36.4496 313.847 36.5372 313.806C36.7254 313.735 36.926 313.652 37.1142 313.582C37.2395 313.526 37.3524 313.484 37.4777 313.429C37.6406 313.359 37.7912 313.303 37.9409 313.221C38.0662 313.166 38.1914 313.111 38.3166 313.055C38.4541 312.987 38.5916 312.918 38.7422 312.862C38.8675 312.806 38.9918 312.726 39.1171 312.67C39.2546 312.602 39.3798 312.546 39.5042 312.465C39.6294 312.41 39.7538 312.329 39.879 312.274C39.9911 312.206 40.1286 312.137 40.2407 312.07C40.3651 311.989 40.4903 311.934 40.6147 311.853C40.7268 311.785 40.8389 311.717 40.9632 311.636C41.0876 311.555 41.1997 311.488 41.3241 311.407C41.4362 311.339 41.5351 311.259 41.6472 311.191C41.7716 311.111 41.8837 311.043 41.995 310.95C42.0939 310.87 42.1938 310.815 42.2805 310.748C42.4048 310.667 42.5161 310.574 42.6282 310.506C42.7149 310.44 42.7894 310.386 42.8761 310.319C43.3096 309.985 43.7301 309.639 44.112 309.281C44.1733 309.215 44.2355 309.174 44.2968 309.108C44.408 309.015 44.5062 308.909 44.6043 308.804C44.6656 308.738 44.7269 308.672 44.8014 308.618C44.8995 308.513 44.9853 308.42 45.0834 308.315C45.1448 308.249 45.2061 308.183 45.2674 308.117C45.3532 308.025 45.4514 307.919 45.5241 307.814C45.5854 307.749 45.6345 307.696 45.6827 307.617C45.7554 307.513 45.8412 307.42 45.9139 307.316C45.963 307.263 46.0112 307.185 46.0471 307.12C46.1198 307.015 46.1926 306.91 46.2653 306.806C46.3012 306.74 46.3503 306.688 46.3862 306.623C46.4589 306.518 46.5185 306.401 46.5912 306.296C46.6272 306.231 46.6508 306.179 46.6868 306.114C46.7464 305.997 46.8191 305.893 46.8787 305.776C46.9024 305.724 46.9138 305.685 46.9374 305.633C46.997 305.516 47.0566 305.399 47.1031 305.27L47.1153 305.256C47.3161 304.803 47.4406 304.351 47.5144 303.902C47.5135 303.876 47.5249 303.837 47.5363 303.799C47.5574 303.67 47.5662 303.555 47.575 303.44C47.5733 303.389 47.5847 303.35 47.5952 303.286C47.6041 303.17 47.6006 303.068 47.6094 302.953C47.6077 302.902 47.606 302.851 47.6165 302.787C47.6131 302.685 47.6096 302.583 47.593 302.468C47.5913 302.417 47.5764 302.354 47.5747 302.303C47.5713 302.201 47.5424 302.1 47.5259 301.985C47.511 301.922 47.5093 301.871 47.4822 301.821C47.4533 301.719 47.4245 301.618 47.3956 301.517C47.3808 301.454 47.3537 301.403 47.3397 301.366C47.3108 301.264 47.2566 301.164 47.2278 301.063C47.2006 301.013 47.1735 300.962 47.1595 300.925C47.1053 300.824 47.0633 300.711 47.0091 300.61C46.9951 300.573 46.9557 300.536 46.9417 300.498C46.3224 299.471 45.2862 298.523 43.7351 297.759C31.1287 291.432 11.0616 303.154 4.99041 307.04C6.41903 302.303 7.95008 297.588 9.67372 292.931L9.74386 292.75C9.80259 292.607 9.84906 292.478 9.89466 292.323C9.89466 292.323 9.89466 292.323 9.90693 292.31L10.9353 289.643C13.2426 283.829 15.9123 278.207 18.9444 272.777C19.6166 273.111 20.5086 273.553 21.6054 274.04C21.7218 274.1 21.8374 274.134 21.9538 274.194C22.4309 274.395 22.9473 274.633 23.4883 274.844C23.6301 274.903 23.7588 274.95 23.9006 275.009C24.2096 275.126 24.5317 275.255 24.8539 275.385C25.0858 275.479 25.3178 275.574 25.562 275.655C25.7424 275.725 25.9227 275.796 26.1284 275.865C26.7464 276.1 27.4021 276.32 28.0832 276.539C28.4176 276.656 28.7642 276.759 29.1109 276.862C33.4398 278.209 38.5734 279.298 43.7698 279.235C44.0237 279.227 44.2653 279.231 44.5192 279.223C44.5954 279.22 44.6716 279.217 44.7478 279.215C44.9378 279.196 45.1286 279.202 45.3186 279.183C45.3948 279.18 45.4456 279.178 45.5217 279.176C45.7625 279.155 46.0164 279.146 46.2572 279.125C46.308 279.123 46.3334 279.122 46.3842 279.121C46.5873 279.114 46.7896 279.081 46.9796 279.062C47.0558 279.059 47.1188 279.044 47.195 279.042C47.385 279.023 47.575 279.003 47.7519 278.972C47.8026 278.97 47.8534 278.968 47.8911 278.954C48.1187 278.921 48.3464 278.888 48.574 278.854C48.6248 278.852 48.6879 278.838 48.7255 278.823C48.9024 278.792 49.0793 278.76 49.2562 278.729C49.3192 278.714 49.3822 278.699 49.4453 278.684C49.6476 278.651 49.8498 278.619 50.039 278.574C50.0644 278.573 50.0766 278.56 50.0898 278.573C50.3043 278.527 50.5188 278.481 50.7333 278.436C50.7964 278.421 50.834 278.407 50.8848 278.405C51.0486 278.361 51.2123 278.317 51.3638 278.286C51.4146 278.285 51.4645 278.257 51.5153 278.256C51.7167 278.198 51.9181 278.14 52.1195 278.082C52.1195 278.082 52.1318 278.068 52.1449 278.081C52.334 278.036 52.5223 277.966 52.6983 277.909C52.736 277.895 52.799 277.88 52.8367 277.866C52.9873 277.809 53.151 277.765 53.3017 277.709C53.3393 277.695 53.3647 277.694 53.4024 277.68C53.5906 277.61 53.7667 277.553 53.9418 277.47C53.9672 277.469 53.9795 277.456 53.9917 277.443C54.1424 277.387 54.3052 277.317 54.4427 277.249C54.4804 277.235 54.518 277.221 54.5557 277.206C54.7186 277.137 54.8815 277.068 55.0312 276.986L55.0435 276.973C55.2064 276.903 55.3684 276.808 55.5182 276.727C55.5304 276.713 55.5558 276.712 55.5803 276.686C55.7178 276.618 55.8422 276.537 55.9797 276.468C55.992 276.455 56.0296 276.441 56.0419 276.428C56.3283 276.252 56.6024 276.089 56.8503 275.902C56.8625 275.889 56.8748 275.875 56.9002 275.875C57.0114 275.781 57.1235 275.714 57.2348 275.62C57.247 275.607 57.247 275.607 57.2593 275.594C57.494 275.394 57.7034 275.196 57.8874 274.998C57.8996 274.985 57.9119 274.971 57.9242 274.958C58.1204 274.747 58.2789 274.55 58.4367 274.328C58.5094 274.223 58.569 274.106 58.6294 274.014C58.6417 274.001 58.6417 274.001 58.654 273.988C58.774 273.78 58.8678 273.546 58.9362 273.314L58.9485 273.301C58.9827 273.185 59.0046 273.082 59.0388 272.966C59.0388 272.966 59.0511 272.953 59.038 272.94C59.081 272.709 59.0986 272.478 59.1031 272.235L59.1022 272.21C59.0244 270.284 57.1868 268.188 53.001 266.185C43.0414 261.454 26.3582 268.001 20.0731 270.822C22.8956 265.961 25.9781 261.27 29.3722 256.772L31.3811 254.162C32.0513 253.309 32.7347 252.468 33.418 251.627C36.1899 248.275 39.1193 245.071 42.1931 242.002C42.3752 242.124 42.5826 242.245 42.8163 242.39C42.9336 242.475 43.0631 242.547 43.1927 242.62C43.4526 242.79 43.738 242.959 44.0496 243.152C44.9844 243.734 46.1257 244.41 47.4877 245.219C47.9411 245.472 48.4085 245.763 48.9135 246.039C49.1726 246.184 49.4317 246.328 49.6785 246.486C52.2965 247.98 55.5203 249.723 59.3104 251.675C59.4916 251.771 59.6728 251.867 59.8531 251.938C59.9179 251.974 59.9695 251.998 60.0343 252.034C60.1507 252.094 60.2794 252.14 60.4089 252.213C60.4737 252.249 60.5507 252.272 60.6155 252.308C60.7319 252.368 60.8475 252.402 60.9639 252.462C61.0409 252.485 61.1188 252.533 61.1959 252.556C61.2991 252.604 61.4278 252.65 61.5311 252.698C61.6082 252.721 61.6861 252.769 61.7631 252.792C61.8664 252.84 61.9819 252.874 62.1106 252.921C62.1877 252.944 62.2778 252.979 62.3426 253.015C62.4581 253.049 62.5614 253.097 62.6901 253.144C62.7672 253.167 62.8442 253.19 62.909 253.226C63.0376 253.272 63.1532 253.307 63.2687 253.341C63.3458 253.364 63.3974 253.388 63.4745 253.411C63.6285 253.457 63.7826 253.502 63.9367 253.548C63.9752 253.56 64.0137 253.571 64.0522 253.583C64.2448 253.64 64.4374 253.697 64.63 253.755C64.6817 253.778 64.7456 253.789 64.7963 253.787C64.9373 253.821 65.0782 253.854 65.2069 253.901C65.284 253.924 65.3479 253.934 65.4249 253.957C65.5405 253.992 65.6683 254.013 65.7838 254.047C65.8609 254.07 65.9502 254.08 66.0272 254.103C66.1428 254.137 66.2574 254.146 66.3599 254.168C66.4369 254.191 66.5262 254.201 66.6155 254.21C66.7179 254.232 66.8458 254.254 66.9482 254.276C67.0375 254.285 67.1145 254.308 67.2038 254.318C67.3062 254.34 67.4209 254.349 67.5365 254.383C67.6258 254.393 67.7028 254.416 67.7921 254.426C67.9068 254.435 68.0092 254.457 68.1371 254.478C68.2264 254.488 68.2903 254.498 68.3796 254.508C68.5074 254.529 68.6221 254.538 68.7499 254.559C68.8138 254.57 68.89 254.567 68.9539 254.578C69.1325 254.597 69.3365 254.616 69.5151 254.635C69.579 254.646 69.6298 254.644 69.6937 254.655C69.8215 254.676 69.9485 254.671 70.0763 254.693C70.1656 254.702 70.2418 254.7 70.3311 254.709C70.4457 254.718 70.5473 254.715 70.6497 254.737C70.739 254.747 70.8152 254.744 70.9168 254.741C71.0183 254.737 71.1076 254.747 71.2092 254.743C71.2985 254.753 71.3869 254.737 71.4762 254.747C71.5778 254.744 71.6671 254.753 71.7687 254.75C71.858 254.76 71.9464 254.744 72.0357 254.753C72.1373 254.75 72.2135 254.747 72.315 254.744C72.4166 254.74 72.4928 254.738 72.5943 254.734C72.6836 254.744 72.7721 254.728 72.8736 254.725C72.9752 254.721 73.0514 254.719 73.1529 254.715C73.2291 254.713 73.3307 254.709 73.4068 254.707C73.5084 254.703 73.5968 254.687 73.6861 254.697C73.7623 254.694 73.8507 254.679 73.9269 254.676C74.1169 254.657 74.32 254.65 74.5223 254.617C74.5854 254.603 74.6493 254.613 74.7123 254.598C74.8139 254.595 74.9146 254.566 75.0162 254.562C75.0923 254.56 75.1554 254.545 75.2315 254.542C75.32 254.526 75.4338 254.51 75.5222 254.494C75.5853 254.479 75.6615 254.476 75.7245 254.461C75.8129 254.446 75.9268 254.429 76.0152 254.413C76.0783 254.398 76.1544 254.396 76.2175 254.381C76.3059 254.365 76.4066 254.336 76.5082 254.332C76.5712 254.318 76.6343 254.303 76.6973 254.288C76.798 254.259 76.8865 254.243 76.9872 254.214C77.0502 254.199 77.1133 254.184 77.1763 254.169C77.277 254.14 77.3654 254.124 77.4661 254.095C77.5169 254.094 77.5669 254.066 77.6176 254.065C77.7183 254.036 77.819 254.007 77.9197 253.978C77.9451 253.977 77.9828 253.963 77.995 253.95C78.3725 253.834 78.749 253.694 79.1133 253.566C79.1387 253.566 79.151 253.552 79.1764 253.552C79.2893 253.509 79.3769 253.468 79.4767 253.414C79.5144 253.4 79.552 253.385 79.5897 253.371C79.6773 253.33 79.7771 253.276 79.8778 253.247C79.9155 253.233 79.9531 253.218 80.003 253.191C80.0906 253.15 80.1782 253.109 80.278 253.054C80.3157 253.04 80.3533 253.026 80.3901 252.986C80.4777 252.945 80.5653 252.904 80.652 252.837C80.6897 252.823 80.7142 252.796 80.7518 252.782C80.8394 252.741 80.9261 252.674 81.0137 252.633C81.0382 252.607 81.0636 252.606 81.0881 252.579C81.188 252.525 81.2747 252.458 81.3491 252.404C81.3614 252.391 81.3614 252.391 81.3737 252.378C81.7836 252.096 82.1549 251.802 82.4869 251.471C82.4992 251.458 82.5115 251.445 82.5115 251.445C82.5851 251.366 82.6464 251.3 82.72 251.221C82.7322 251.207 82.7568 251.181 82.769 251.168C82.8303 251.102 82.9039 251.023 82.9652 250.957C82.9898 250.93 83.002 250.917 83.0266 250.891C83.0879 250.825 83.1361 250.747 83.2097 250.667C83.2342 250.641 83.2465 250.628 83.2579 250.589C83.3061 250.511 83.3674 250.445 83.4278 250.353C83.4401 250.34 83.4646 250.314 83.4638 250.288C83.512 250.21 83.5724 250.119 83.6206 250.04C83.6329 250.027 83.6329 250.027 83.6451 250.014C83.873 249.61 84.0623 249.195 84.2 248.756C84.2219 248.653 84.257 248.562 84.2789 248.459C84.2781 248.434 84.2903 248.421 84.2895 248.395C84.3114 248.292 84.3211 248.202 84.3561 248.112C84.3553 248.086 84.3667 248.048 84.3658 248.022C84.3755 247.932 84.3974 247.829 84.4071 247.74C84.4063 247.714 84.4177 247.675 84.4168 247.65C84.4265 247.56 84.4353 247.445 84.445 247.355C84.4441 247.33 84.4555 247.291 84.4546 247.265C84.4512 247.163 84.4609 247.074 84.4697 246.958C84.4688 246.933 84.4679 246.907 84.4671 246.882C84.4554 245.784 84.1732 244.58 83.5951 243.271C78.1483 231.041 52.7359 237.67 44.0308 240.343C49.0895 235.457 54.5166 230.941 60.264 226.874C60.2894 226.873 60.2894 226.873 60.3148 226.872L62.4624 225.356C65.879 223.029 69.4024 220.852 73.0203 218.838C73.0588 218.85 73.0973 218.861 73.1358 218.872C73.4054 218.953 73.6497 219.034 73.9062 219.102C73.9447 219.113 73.9701 219.112 74.0086 219.124C74.2651 219.192 74.5216 219.259 74.7904 219.314C74.8158 219.313 74.8543 219.325 74.8674 219.337C75.1362 219.392 75.4049 219.446 75.6737 219.501C75.7245 219.499 75.7761 219.523 75.8269 219.521C76.0825 219.564 76.3513 219.618 76.6192 219.648C76.67 219.646 76.7085 219.657 76.7593 219.656C77.0403 219.697 77.3082 219.726 77.6015 219.755L77.6269 219.754C77.8948 219.783 78.175 219.799 78.4551 219.815C78.5059 219.813 78.5444 219.825 78.5952 219.823C78.8754 219.839 79.1424 219.843 79.4095 219.846C79.4602 219.844 79.511 219.843 79.5749 219.853C79.842 219.857 80.1221 219.873 80.4014 219.863C80.44 219.875 80.4776 219.861 80.5284 219.859C80.7954 219.863 81.0747 219.853 81.3409 219.831C81.3663 219.83 81.3917 219.83 81.4171 219.829C81.6964 219.819 81.9879 219.796 82.2541 219.775C82.3049 219.773 82.3557 219.771 82.4065 219.769C82.6726 219.748 82.9511 219.712 83.2173 219.691C83.268 219.689 83.3188 219.687 83.3696 219.685C83.648 219.65 83.9265 219.615 84.2049 219.58C84.2303 219.579 84.2426 219.566 84.268 219.565C84.5464 219.53 84.8117 219.483 85.0902 219.448C85.1278 219.434 85.1786 219.432 85.204 219.431C85.4693 219.384 85.76 219.335 86.0253 219.288C86.0761 219.286 86.1392 219.271 86.1768 219.257C86.4544 219.197 86.7197 219.149 86.9973 219.089C87.0349 219.075 87.0857 219.073 87.1234 219.059C87.4009 218.998 87.6654 218.926 87.943 218.865C87.9552 218.852 87.9684 218.864 87.9806 218.851C88.2705 218.777 88.5349 218.704 88.8248 218.63C88.8624 218.616 88.9255 218.601 88.9631 218.587C89.2276 218.515 89.5043 218.428 89.7687 218.356C89.8186 218.328 89.8694 218.327 89.9193 218.299C90.1961 218.213 90.4728 218.127 90.7364 218.029C90.7618 218.028 90.7863 218.001 90.8117 218.001C91.0753 217.902 91.3397 217.829 91.6033 217.731C91.641 217.717 91.6786 217.703 91.704 217.702C91.9676 217.603 92.2312 217.505 92.4948 217.407C92.5447 217.379 92.5955 217.378 92.6454 217.35C92.909 217.252 93.1594 217.141 93.423 217.043C93.4607 217.029 93.5106 217.001 93.5483 216.987C93.8241 216.876 94.0746 216.765 94.3504 216.653C94.6131 216.529 94.889 216.418 95.1517 216.294C95.1894 216.28 95.2393 216.253 95.2769 216.239C95.5274 216.128 95.777 215.992 96.0275 215.881C96.0774 215.854 96.115 215.84 96.165 215.812C96.4145 215.676 96.665 215.565 96.9146 215.429C96.9523 215.415 96.9645 215.402 97.0022 215.388C97.2395 215.265 97.4891 215.128 97.7264 215.005C97.7387 214.992 97.7764 214.978 97.7886 214.965C98.0382 214.829 98.2756 214.705 98.512 214.557C98.5619 214.53 98.5996 214.516 98.6495 214.488C98.8737 214.353 99.1233 214.217 99.3475 214.081C99.3852 214.067 99.422 214.028 99.4596 214.014C99.6961 213.865 99.9326 213.716 100.169 213.568L100.181 213.555C100.418 213.406 100.654 213.257 100.865 213.11C100.903 213.096 100.928 213.069 100.965 213.055C101.176 212.908 101.4 212.772 101.624 212.611C101.674 212.584 101.698 212.558 101.748 212.53C101.959 212.383 102.183 212.222 102.394 212.074C102.418 212.048 102.444 212.047 102.468 212.02C102.679 211.873 102.877 211.713 103.088 211.565C103.1 211.552 103.113 211.538 103.138 211.538C103.336 211.378 103.547 211.23 103.745 211.07C103.77 211.043 103.82 211.016 103.844 210.99C104.042 210.83 104.228 210.683 104.426 210.523C104.45 210.496 104.488 210.482 104.525 210.443C104.723 210.283 104.907 210.11 105.105 209.95L105.118 209.937C105.302 209.765 105.488 209.618 105.673 209.446C105.698 209.419 105.71 209.406 105.734 209.38C105.907 209.22 106.079 209.061 106.252 208.902C106.277 208.876 106.301 208.849 106.338 208.81C106.51 208.65 106.67 208.479 106.83 208.333C106.855 208.307 106.867 208.293 106.891 208.267C107.051 208.096 107.223 207.936 107.358 207.766L107.37 207.753C107.529 207.581 107.676 207.423 107.81 207.252C107.835 207.226 107.859 207.199 107.872 207.186C108.019 207.028 108.153 206.857 108.275 206.7C108.299 206.673 108.312 206.66 108.336 206.634C108.47 206.463 108.604 206.292 108.726 206.135C108.738 206.122 108.738 206.122 108.75 206.109C108.872 205.951 109.006 205.781 109.115 205.611C109.127 205.598 109.139 205.584 109.152 205.571C109.273 205.414 109.382 205.244 109.479 205.087C109.503 205.061 109.502 205.036 109.527 205.009C109.623 204.853 109.732 204.683 109.828 204.526C109.84 204.513 109.84 204.487 109.864 204.461C110.056 204.122 110.223 203.81 110.378 203.486C110.39 203.472 110.389 203.447 110.401 203.434C110.472 203.278 110.543 203.122 110.602 202.98C110.614 202.966 110.613 202.941 110.638 202.915C110.709 202.759 110.755 202.604 110.8 202.449C110.8 202.449 110.812 202.436 110.799 202.424C110.845 202.269 110.891 202.114 110.924 201.972L110.923 201.947C110.956 201.805 110.99 201.664 111.01 201.51C111.009 201.484 111.021 201.471 111.02 201.445C110.909 201.143 110.93 201.014 110.938 200.873C110.937 200.848 110.937 200.848 110.936 200.822C110.952 200.541 110.954 200.247 110.933 199.979C110.932 199.954 110.932 199.954 110.931 199.928C110.914 199.788 110.897 199.674 110.867 199.547C110.866 199.522 110.853 199.509 110.852 199.484C110.823 199.357 110.793 199.23 110.738 199.105C110.738 199.105 110.725 199.092 110.724 199.067C110.682 198.953 110.627 198.827 110.572 198.701L110.559 198.689C110.504 198.563 110.436 198.451 110.369 198.338C110.356 198.326 110.355 198.3 110.342 198.288C110.274 198.175 110.195 198.076 110.102 197.964C110.089 197.952 110.076 197.939 110.063 197.927C109.996 197.84 109.903 197.728 109.798 197.629C108.628 196.481 106.556 195.722 103.371 195.498C84.7989 194.293 75.1031 210.145 72.1864 215.98C68.4556 218.036 64.8324 220.267 61.3159 222.648L59.3785 223.992C53.4315 228.168 47.7924 232.806 42.5349 237.826C45.9965 229.686 53.42 209.033 44.0735 200.628C41.5959 198.4 39.3715 197.646 37.4627 197.954C37.4504 197.967 37.4373 197.954 37.425 197.968C36.869 198.063 36.3287 198.248 35.8295 198.52L35.8173 198.534C35.3181 198.806 34.8346 199.167 34.3914 199.591L34.3791 199.605C33.9359 200.028 33.5083 200.541 33.1333 201.103C33.1211 201.116 33.1211 201.116 33.1088 201.13C33.0361 201.234 32.9511 201.352 32.8915 201.469C32.6023 201.939 32.3272 202.447 32.0528 202.98C32.0406 202.993 32.0292 203.032 32.0169 203.045C31.9573 203.162 31.9109 203.291 31.839 203.421C31.8267 203.434 31.8276 203.46 31.8153 203.473C31.6383 203.875 31.4743 204.29 31.3113 204.729C31.299 204.743 31.2999 204.768 31.2876 204.781C31.2411 204.911 31.1947 205.04 31.1482 205.169C31.1368 205.208 31.1131 205.26 31.1017 205.299C31.0553 205.428 31.0211 205.544 30.9877 205.686C30.9763 205.724 30.9649 205.763 30.9412 205.815C30.8158 206.241 30.6904 206.667 30.5904 207.092C30.5667 207.144 30.5684 207.195 30.557 207.233C30.5228 207.349 30.5018 207.478 30.4807 207.606C30.4701 207.671 30.4473 207.748 30.4368 207.812C30.4157 207.941 30.3815 208.057 30.3605 208.185C30.3376 208.263 30.3271 208.327 30.3174 208.417C30.2964 208.545 30.2621 208.661 30.2533 208.777C30.2428 208.841 30.2323 208.905 30.2217 208.969C30.1787 209.201 30.1357 209.432 30.1181 209.663C30.1084 209.752 30.0987 209.842 30.0759 209.919C30.0671 210.035 30.0452 210.138 30.0363 210.253C30.0267 210.343 30.0047 210.446 30.0082 210.548C29.9994 210.663 29.9774 210.766 29.9686 210.881C29.9467 210.984 29.9501 211.086 29.9413 211.201C29.9325 211.317 29.9228 211.406 29.914 211.522C29.8938 211.676 29.8858 211.817 29.8788 211.983C29.8577 212.111 29.862 212.239 29.8409 212.367C29.833 212.508 29.8242 212.623 29.8162 212.764C29.8065 212.854 29.81 212.956 29.8003 213.046C29.7915 213.161 29.7958 213.289 29.787 213.404C29.7904 213.506 29.7808 213.596 29.7842 213.698C29.7885 213.825 29.7806 213.966 29.7718 214.081C29.7621 214.171 29.7647 214.248 29.7681 214.35C29.7628 214.567 29.7697 214.771 29.7643 214.989C29.766 215.04 29.7678 215.091 29.7572 215.155C29.7501 215.321 29.7684 215.487 29.7614 215.653C29.7639 215.729 29.7674 215.832 29.77 215.908C29.7743 216.036 29.7795 216.189 29.7838 216.316C29.7864 216.393 29.7898 216.495 29.7924 216.572C29.7976 216.725 29.815 216.865 29.8202 217.018C29.8228 217.094 29.8254 217.171 29.828 217.247C29.848 217.464 29.868 217.68 29.8881 217.897C29.8889 217.922 29.9029 217.96 29.8915 217.999C29.9107 218.19 29.9298 218.381 29.949 218.572C29.9516 218.648 29.9664 218.712 29.9822 218.801C29.9996 218.94 30.0179 219.106 30.0353 219.246C30.0379 219.322 30.0537 219.411 30.0685 219.475C30.0991 219.627 30.1043 219.78 30.1348 219.932C30.1497 219.996 30.1523 220.072 30.1671 220.135C30.2003 220.364 30.2326 220.568 30.278 220.783C30.2788 220.809 30.292 220.821 30.2797 220.834C30.312 221.037 30.3566 221.228 30.3889 221.431C30.4037 221.494 30.4186 221.558 30.4343 221.646C30.4648 221.799 30.4954 221.951 30.5382 222.09C30.5662 222.166 30.5688 222.242 30.5968 222.318C30.6274 222.47 30.6702 222.609 30.7008 222.761C30.7156 222.825 30.7305 222.888 30.7453 222.952C30.803 223.154 30.8484 223.37 30.9192 223.584C30.9192 223.584 30.9324 223.597 30.9201 223.61C30.9778 223.812 31.0355 224.015 31.0931 224.217C31.108 224.28 31.1229 224.344 31.1631 224.406C31.2059 224.545 31.2619 224.697 31.3047 224.836C31.3327 224.911 31.3475 224.975 31.3755 225.05C31.4184 225.189 31.4743 225.341 31.5294 225.467C31.5443 225.53 31.5845 225.593 31.5994 225.656C31.6824 225.857 31.7524 226.047 31.8355 226.248C33.0545 229.221 34.1775 231.61 35.1825 233.517C35.4808 234.069 35.752 234.571 36.0223 235.047C36.2926 235.523 36.5489 235.961 36.8166 236.361C37.1928 236.961 37.5541 237.498 37.8875 237.96C37.9942 238.109 38.101 238.259 38.2077 238.409C38.6338 238.982 39.0048 239.429 39.3478 239.8C39.4275 239.9 39.5062 239.974 39.5981 240.06C39.7294 240.183 39.8484 240.32 39.9534 240.418C36.8559 243.539 33.8906 246.808 31.0819 250.199L28.9224 252.866C25.0106 257.841 21.4253 263.073 18.2032 268.523C19.0526 259.437 20.3414 233.27 7.34288 231.888C6.78169 231.83 6.27214 231.796 5.76345 231.788C5.6365 231.793 5.52181 231.784 5.39485 231.788L5.36946 231.789C5.24251 231.793 5.14094 231.797 5.02711 231.813L5.00172 231.814C4.90016 231.818 4.78633 231.834 4.68476 231.838L4.65937 231.839C4.48164 231.845 4.36781 231.862 4.26624 231.865L4.24085 231.866C4.13928 231.869 4.03859 231.898 3.93702 231.902C3.92476 231.915 3.91163 231.903 3.89937 231.916C3.81093 231.932 3.6971 231.948 3.60866 231.964C3.5964 231.977 3.58327 231.965 3.571 231.978C3.48257 231.994 3.38186 232.023 3.29343 232.039C3.28116 232.052 3.26804 232.04 3.25577 232.053C3.16734 232.069 3.0789 232.084 2.99132 232.126C2.97906 232.139 2.96593 232.127 2.95367 232.14C2.86523 232.156 2.78992 232.184 2.70234 232.225C2.69008 232.238 2.67695 232.226 2.66469 232.239C2.58938 232.267 2.50094 232.283 2.41337 232.324C2.4011 232.337 2.38798 232.325 2.37571 232.338C2.3004 232.366 2.22509 232.395 2.13752 232.436C2.12525 232.449 2.11212 232.437 2.09986 232.45C2.02455 232.478 1.94924 232.506 1.87479 232.56C1.86252 232.573 1.8494 232.561 1.83714 232.574C1.76183 232.602 1.69964 232.642 1.61207 232.684C1.5998 232.697 1.5998 232.697 1.57441 232.698C1.51223 232.738 1.43692 232.766 1.36247 232.82C1.3502 232.833 1.3502 232.833 1.32481 232.834C1.26263 232.874 1.20045 232.915 1.126 232.969C1.11374 232.982 1.11374 232.982 1.10147 232.995C1.03929 233.035 0.977103 233.076 0.902655 233.129C0.890391 233.143 0.89039 233.143 0.878126 233.156C0.815943 233.196 0.75462 233.262 0.692437 233.303C0.680173 233.316 0.680177 233.316 0.667913 233.329C0.605729 233.37 0.544407 233.436 0.49535 233.488L0.483083 233.501C0.434027 233.554 0.372709 233.62 0.310525 233.661L0.298259 233.674C0.249202 233.727 0.18788 233.793 0.138823 233.845L0.126561 233.859C0.0775043 233.911 0.0161822 233.977 -0.0197475 234.042C-0.0197475 234.042 -0.0197455 234.042 -0.0320096 234.056C-0.0933305 234.122 -0.129259 234.187 -0.19058 234.253C-0.238774 234.331 -0.28783 234.384 -0.336024 234.462C-1.39802 236.133 -1.61107 238.478 -1.20093 241.211C-1.18435 241.325 -1.16777 241.439 -1.15119 241.554C-1.15119 241.554 -1.15119 241.554 -1.13807 241.566C-1.12149 241.68 -1.10491 241.795 -1.07607 241.896L-1.07521 241.922C-1.05863 242.036 -1.02979 242.137 -1.01321 242.252C-1.00008 242.264 -1.01235 242.277 -0.99922 242.289C-0.982642 242.404 -0.9538 242.505 -0.924095 242.632C-0.910968 242.644 -0.92323 242.657 -0.910103 242.67C-0.893525 242.784 -0.864686 242.885 -0.822717 242.999C-0.821854 243.024 -0.808723 243.037 -0.820987 243.05C-0.792145 243.151 -0.775569 243.265 -0.7336 243.379C-0.732737 243.404 -0.719611 243.417 -0.718748 243.442C-0.689906 243.543 -0.673326 243.658 -0.631356 243.771C-0.630494 243.797 -0.617367 243.809 -0.616504 243.835C-0.587662 243.936 -0.558818 244.037 -0.529113 244.164C-0.52825 244.189 -0.515124 244.202 -0.514261 244.227C-0.485418 244.328 -0.44345 244.442 -0.414607 244.543C-0.413745 244.569 -0.400618 244.581 -0.386628 244.619C-0.357786 244.72 -0.315816 244.834 -0.286974 244.935C-0.286111 244.96 -0.259858 244.985 -0.258995 245.011C-0.230153 245.112 -0.188184 245.225 -0.159342 245.326C-0.158479 245.352 -0.14449 245.39 -0.131363 245.402C-0.10252 245.503 -0.0605516 245.617 -0.0317093 245.718C-0.0308465 245.744 -0.0168573 245.781 -0.00373037 245.794C0.0251119 245.895 0.0670814 246.009 0.0959237 246.11C0.109913 246.148 0.110775 246.173 0.137029 246.198C0.165872 246.299 0.207846 246.412 0.236688 246.514C0.250678 246.552 0.25154 246.577 0.277794 246.602C0.306636 246.703 0.348603 246.816 0.402836 246.917C0.416826 246.955 0.417689 246.98 0.443943 247.005C0.485912 247.118 0.527021 247.206 0.56899 247.32C0.58298 247.358 0.583839 247.383 0.597829 247.421C0.639798 247.535 0.680907 247.623 0.722876 247.736C0.736866 247.774 0.750856 247.812 0.763983 247.824C0.805952 247.938 0.847055 248.026 0.889025 248.139C0.903014 248.177 0.917009 248.215 0.930136 248.227C0.972105 248.341 1.01321 248.429 1.05518 248.542C1.06917 248.58 1.08316 248.618 1.10941 248.643C1.15138 248.756 1.20562 248.857 1.23446 248.958C1.24845 248.996 1.26243 249.033 1.27642 249.071C1.31839 249.185 1.37263 249.285 1.4146 249.399C1.42859 249.437 1.44258 249.474 1.45571 249.487C1.49767 249.6 1.55191 249.701 1.59387 249.814C1.60786 249.852 1.62186 249.89 1.64811 249.914C1.70235 250.015 1.74431 250.128 1.79854 250.229C1.81253 250.266 1.83879 250.291 1.85278 250.329C1.90702 250.429 1.94898 250.543 2.00322 250.643C2.01721 250.681 2.0312 250.719 2.05745 250.744C2.11168 250.844 2.15365 250.957 2.20789 251.058C2.22188 251.096 2.24813 251.12 2.24899 251.146C2.30323 251.246 2.35832 251.372 2.41256 251.472C2.42655 251.51 2.4528 251.535 2.45366 251.56C2.5079 251.661 2.56299 251.786 2.61723 251.887C2.63122 251.925 2.64434 251.937 2.65833 251.975C2.72569 252.088 2.76766 252.201 2.83502 252.314C2.83588 252.339 2.86214 252.364 2.863 252.389C2.93036 252.502 2.98546 252.628 3.05282 252.741C3.06595 252.753 3.06681 252.778 3.09306 252.803C3.14816 252.929 3.21552 253.042 3.296 253.167C3.30913 253.179 3.31 253.204 3.31 253.204C3.37822 253.343 3.44558 253.455 3.5138 253.593C4.04301 254.585 4.60987 255.562 5.20213 256.538C5.26949 256.65 5.34997 256.775 5.41733 256.888C5.44359 256.913 5.44445 256.938 5.4707 256.963C5.52494 257.063 5.60456 257.163 5.6588 257.263C5.67279 257.301 5.71217 257.338 5.72616 257.376C5.78039 257.476 5.84689 257.563 5.90112 257.663C5.92824 257.714 5.96762 257.751 5.98161 257.788C6.04811 257.876 6.10234 257.976 6.15571 258.051C6.18283 258.101 6.20994 258.151 6.24932 258.188C6.31582 258.275 6.35693 258.363 6.42342 258.45C6.45054 258.501 6.49079 258.563 6.5179 258.613C6.57127 258.688 6.6255 258.788 6.67888 258.863C6.71912 258.926 6.74624 258.976 6.78649 259.038C6.83986 259.113 6.89323 259.188 6.94746 259.288C6.9877 259.351 7.01482 259.401 7.05507 259.463C7.10844 259.538 7.16181 259.613 7.21518 259.688C7.25542 259.75 7.29567 259.813 7.32278 259.863C7.37615 259.938 7.42952 260.013 7.48289 260.088C7.52313 260.15 7.56338 260.213 7.60362 260.275C7.65699 260.35 7.71036 260.425 7.76373 260.499C7.80398 260.562 7.84422 260.624 7.88447 260.687C7.93784 260.762 7.99121 260.837 8.04458 260.911C8.08482 260.974 8.12506 261.036 8.17757 261.086C8.23094 261.161 8.28431 261.235 8.33768 261.31C8.37793 261.373 8.41818 261.435 8.47068 261.484C8.52405 261.559 8.5643 261.622 8.61767 261.697C8.65791 261.759 8.71128 261.834 8.76379 261.883C8.81716 261.958 8.8574 262.021 8.92304 262.082C8.96328 262.145 9.01665 262.219 9.06916 262.269C9.12253 262.344 9.16278 262.406 9.22841 262.468C9.26865 262.53 9.32202 262.605 9.37453 262.654C9.4279 262.729 9.46814 262.792 9.53378 262.853C9.57402 262.916 9.63966 262.977 9.67991 263.04C9.73328 263.115 9.78578 263.164 9.83915 263.239C9.87939 263.301 9.94503 263.363 9.98528 263.425C10.0255 263.488 10.0912 263.55 10.1314 263.612C10.1716 263.675 10.2373 263.736 10.2775 263.799C10.3178 263.861 10.3834 263.923 10.4236 263.985C10.4639 264.048 10.5295 264.109 10.5698 264.172C10.61 264.234 10.6756 264.296 10.7159 264.359C10.7561 264.421 10.8218 264.483 10.862 264.545C10.9022 264.608 10.9679 264.669 11.0081 264.732C11.0484 264.794 11.114 264.856 11.1542 264.918C11.1945 264.981 11.2601 265.043 11.3004 265.105C11.3406 265.168 11.4062 265.229 11.4465 265.292C11.4867 265.354 11.5524 265.416 11.5926 265.478C11.6451 265.528 11.6985 265.602 11.751 265.652C11.8035 265.701 11.8569 265.776 11.9094 265.825C11.9619 265.874 12.0153 265.949 12.0678 265.999C12.1203 266.048 12.1605 266.11 12.2262 266.172C12.2787 266.221 12.332 266.296 12.3845 266.345C12.4371 266.395 12.4773 266.457 12.5298 266.506C12.5823 266.556 12.6357 266.631 12.6882 266.68C12.7407 266.729 12.7809 266.792 12.8335 266.841C12.886 266.89 12.9393 266.965 12.9918 267.014C13.0443 267.064 13.0846 267.126 13.1371 267.176C13.1896 267.225 13.243 267.3 13.2955 267.349C13.348 267.398 13.3882 267.461 13.4407 267.51C13.4933 267.559 13.5466 267.634 13.5991 267.683C13.6516 267.733 13.7041 267.782 13.7444 267.845C13.7969 267.894 13.8625 267.956 13.9028 268.018C13.9553 268.067 14.0078 268.117 14.048 268.179C14.1005 268.228 14.1531 268.278 14.2064 268.353C14.2589 268.402 14.3114 268.451 14.3639 268.5C14.4165 268.55 14.4821 268.611 14.5346 268.661C14.5871 268.71 14.6396 268.759 14.679 268.796C14.7315 268.846 14.784 268.895 14.8496 268.956C14.9022 269.006 14.9547 269.055 14.994 269.092C15.0466 269.141 15.0991 269.191 15.1516 269.24C15.2041 269.289 15.2435 269.326 15.296 269.376C15.3485 269.425 15.401 269.474 15.4535 269.523C15.506 269.573 15.5454 269.61 15.5979 269.659C15.6504 269.708 15.7029 269.758 15.7554 269.807C15.8079 269.856 15.8473 269.893 15.8998 269.943C15.9523 269.992 16.0048 270.041 16.0573 270.09C16.0967 270.127 16.1492 270.177 16.1886 270.214C16.2411 270.263 16.2936 270.312 16.3592 270.374C16.3986 270.411 16.4511 270.46 16.4905 270.497C16.543 270.546 16.6087 270.608 16.6734 270.644C16.6866 270.657 16.7128 270.681 16.7259 270.694C14.4466 274.706 12.3748 278.839 10.5095 283.067C9.99063 284.259 9.47171 285.452 8.97905 286.67L8.07612 288.911C6.21585 293.662 4.57441 298.496 3.0494 303.389C2.58867 295.025 -0.382206 277.831 -16.3647 271.645C-19.4942 270.436 -21.7521 270.194 -23.2863 270.68C-23.2863 270.68 -23.2986 270.694 -23.3117 270.681C-23.45 270.724 -23.5753 270.78 -23.7005 270.835C-23.7005 270.835 -23.7128 270.848 -23.7259 270.836C-23.8511 270.891 -23.9632 270.959 -24.0885 271.014C-24.3249 271.163 -24.5229 271.323 -24.72 271.509C-24.8058 271.601 -24.8917 271.693 -24.9644 271.798L-24.9767 271.811C-25.0494 271.916 -25.1221 272.02 -25.1817 272.137C-25.1817 272.137 -25.1817 272.137 -25.194 272.151C-25.3981 272.503 -25.5375 272.89 -25.6376 273.315C-25.6376 273.315 -25.6498 273.329 -25.6367 273.341C-25.67 273.483 -25.6903 273.637 -25.7236 273.778C-25.7236 273.778 -25.7359 273.791 -25.7227 273.804C-25.7834 274.266 -25.8046 274.765 -25.7611 275.3L-25.7603 275.325C-25.7542 275.504 -25.7359 275.669 -25.7168 275.86L-25.7159 275.886C-25.6461 276.445 -25.537 277.042 -25.3762 277.662C-25.3631 277.675 -25.3753 277.688 -25.3622 277.7C-25.3045 277.903 -25.26 278.093 -25.1892 278.307C-25.176 278.32 -25.1752 278.345 -25.1752 278.345C-25.1175 278.548 -25.0467 278.762 -24.9759 278.977L-24.9627 278.99C-24.8211 279.419 -24.6532 279.873 -24.4854 280.327C-24.4722 280.34 -24.4714 280.365 -24.4714 280.365C-24.3874 280.592 -24.2912 280.806 -24.2073 281.033C-24.2064 281.059 -24.1933 281.071 -24.1793 281.109C-24.0831 281.323 -23.986 281.562 -23.8898 281.776C-23.8767 281.788 -23.8758 281.814 -23.8758 281.814C-23.6695 282.279 -23.4377 282.744 -23.205 283.234C-23.1919 283.247 -23.191 283.272 -23.1779 283.284C-23.0686 283.511 -22.9461 283.749 -22.8114 283.975C-22.7974 284.012 -22.7843 284.025 -22.7703 284.063C-22.6478 284.301 -22.5131 284.526 -22.3907 284.765C-22.3775 284.777 -22.3635 284.815 -22.3504 284.827C-22.0801 285.304 -21.7835 285.804 -21.487 286.305C-21.4739 286.318 -21.473 286.343 -21.4599 286.355C-21.312 286.593 -21.1642 286.831 -21.0163 287.068C-21.0023 287.106 -20.9761 287.131 -20.9621 287.169C-20.8142 287.406 -20.6664 287.644 -20.5063 287.868C-20.48 287.893 -20.466 287.931 -20.4398 287.956C-20.2788 288.206 -20.1187 288.43 -19.9577 288.68C-19.9446 288.692 -19.9315 288.705 -19.9306 288.73C-19.7696 288.98 -19.5964 289.217 -19.4232 289.454C-19.41 289.466 -19.3969 289.478 -19.396 289.504C-19.2228 289.741 -19.0496 289.978 -18.8763 290.214C-18.8501 290.239 -18.8229 290.289 -18.7967 290.314C-18.6235 290.551 -18.4502 290.787 -18.2647 291.011C-18.2253 291.048 -18.2113 291.086 -18.172 291.123C-17.9987 291.36 -17.8001 291.595 -17.6269 291.832C-17.6006 291.857 -17.5997 291.882 -17.5735 291.907C-17.3871 292.156 -17.2016 292.38 -17.003 292.616C-16.9899 292.628 -16.9767 292.64 -16.9636 292.653C-16.765 292.889 -16.5664 293.124 -16.3677 293.36C-16.3283 293.397 -16.3143 293.435 -16.275 293.472C-16.0895 293.696 -15.8908 293.932 -15.6931 294.142C-15.6537 294.179 -15.6266 294.229 -15.5872 294.266C-15.3886 294.502 -15.1908 294.713 -14.9922 294.948C-14.9659 294.973 -14.9265 295.01 -14.9125 295.048C-14.7016 295.271 -14.4899 295.519 -14.279 295.742L-14.2659 295.754C-14.055 295.977 -13.8309 296.212 -13.6201 296.434C-13.5807 296.471 -13.5544 296.496 -13.515 296.533C-13.3041 296.756 -13.0933 296.979 -12.8832 297.176C-12.8438 297.213 -12.8045 297.25 -12.7651 297.287C-12.5542 297.509 -12.331 297.719 -12.121 297.916C-12.0816 297.953 -12.0554 297.978 -12.016 298.015C-11.7797 298.237 -11.5565 298.446 -11.3202 298.668C-11.3071 298.68 -11.3071 298.68 -11.294 298.693C-11.0708 298.902 -10.8345 299.124 -10.6114 299.334C-10.5851 299.358 -10.5458 299.395 -10.5195 299.42C-10.2963 299.629 -10.0609 299.826 -9.83777 300.035C-9.79839 300.072 -9.75901 300.109 -9.71963 300.146C-9.4842 300.343 -9.27417 300.54 -9.03874 300.736C-8.99936 300.773 -8.95998 300.81 -8.90834 300.834C-8.67291 301.03 -8.43749 301.227 -8.18894 301.435C-8.17581 301.448 -8.14956 301.472 -8.13643 301.485C-7.90101 301.681 -7.65332 301.864 -7.4179 302.06C-7.39165 302.085 -7.3654 302.11 -7.32688 302.121C-7.07919 302.304 -6.84377 302.501 -6.60921 302.671C-6.56983 302.708 -6.51818 302.732 -6.4788 302.769C-6.24424 302.94 -5.99656 303.123 -5.762 303.294C-5.72261 303.331 -5.67097 303.355 -5.63159 303.392C-5.3839 303.575 -5.13707 303.732 -4.87712 303.902C-4.85087 303.927 -4.81236 303.939 -4.79923 303.951C-4.55241 304.108 -4.29245 304.278 -4.04563 304.436C-4.0325 304.448 -3.99399 304.46 -3.98086 304.472C-3.72091 304.642 -3.47408 304.8 -3.21499 304.944C-3.16335 304.968 -3.12397 305.005 -3.08545 305.016C-2.83863 305.174 -2.57954 305.319 -2.33358 305.451C-2.28193 305.474 -2.24256 305.511 -2.19091 305.535C-1.93182 305.68 -1.67273 305.824 -1.42677 305.956C-1.38825 305.968 -1.36199 305.992 -1.32347 306.004C-1.06439 306.148 -0.793038 306.279 -0.53395 306.424C-0.520823 306.436 -0.507693 306.448 -0.495429 306.435C-0.224076 306.567 0.0472674 306.698 0.305493 306.817C0.344011 306.828 0.395661 306.852 0.421915 306.877C0.68014 306.996 0.938368 307.114 1.19659 307.233C1.24824 307.257 1.29988 307.281 1.3384 307.292C1.48021 307.351 1.62201 307.41 1.77695 307.482C-0.389315 314.837 -2.36212 322.275 -4.42595 329.652L-5.40131 333.134C-6.5722 337.223 -7.79473 341.289 -9.12055 345.307C-12.7476 337.651 -24.8706 313.667 -34.035 312.154C-36.8339 311.7 -38.835 312.663 -40.0696 314.493C-40.0941 314.519 -40.0932 314.545 -40.1177 314.571C-40.3228 314.898 -40.5147 315.236 -40.6926 315.613C-40.704 315.652 -40.7163 315.665 -40.7277 315.703C-40.8802 316.079 -41.0319 316.48 -41.145 316.893C-41.1564 316.932 -41.1556 316.957 -41.167 316.996C-41.2231 317.215 -41.267 317.421 -41.3231 317.64C-41.3231 317.64 -41.3354 317.653 -41.3223 317.665C-41.3662 317.871 -41.3969 318.089 -41.4399 318.321C-41.4513 318.36 -41.4505 318.385 -41.4619 318.424C-41.4926 318.642 -41.5225 318.886 -41.5401 319.116C-41.5393 319.142 -41.5515 319.155 -41.5507 319.181C-41.5683 319.411 -41.5737 319.628 -41.5913 319.859C-41.5904 319.884 -41.6018 319.923 -41.5878 319.961C-41.5923 320.204 -41.5968 320.447 -41.5882 320.702C-41.5873 320.727 -41.5856 320.778 -41.5848 320.804C-41.577 321.034 -41.5692 321.263 -41.5483 321.505C-41.5475 321.531 -41.5466 321.556 -41.5326 321.594C-41.524 321.849 -41.49 322.104 -41.456 322.358C-41.4542 322.409 -41.4402 322.447 -41.4516 322.486C-41.4308 322.728 -41.3845 322.969 -41.3636 323.211C-41.3627 323.236 -41.3619 323.262 -41.361 323.287C-41.327 323.542 -41.2798 323.808 -41.2327 324.075C-41.231 324.126 -41.2038 324.176 -41.2021 324.227C-41.1427 324.481 -41.1087 324.735 -41.0361 325.001C-41.023 325.013 -41.0353 325.026 -41.0222 325.038C-40.9496 325.304 -40.8893 325.583 -40.8168 325.849C-40.802 325.912 -40.788 325.95 -40.7731 326.014C-40.628 326.545 -40.4444 327.088 -40.2486 327.618C-40.2337 327.681 -40.2066 327.731 -40.1918 327.795C-40.0938 328.06 -39.9959 328.325 -39.8849 328.602C-39.8717 328.614 -39.8709 328.64 -39.8709 328.64C-39.7607 328.891 -39.6636 329.131 -39.5534 329.383C-39.5263 329.433 -39.4983 329.508 -39.4712 329.559C-39.3479 329.823 -39.2377 330.074 -39.1021 330.325C-39.0881 330.363 -39.0619 330.388 -39.0479 330.425C-38.9254 330.664 -38.8161 330.89 -38.6814 331.116C-38.6542 331.166 -38.614 331.228 -38.5869 331.278C-38.4513 331.529 -38.3035 331.767 -38.1548 332.03C-38.1276 332.08 -38.1014 332.105 -38.0743 332.155C-37.9395 332.38 -37.8057 332.58 -37.671 332.805C-37.6438 332.856 -37.6036 332.918 -37.5642 332.955C-37.4032 333.205 -37.2431 333.43 -37.0699 333.666C-37.0428 333.717 -36.9903 333.766 -36.9632 333.816C-36.8162 334.028 -36.6569 334.227 -36.4977 334.426C-36.4583 334.463 -36.4312 334.513 -36.3918 334.55C-36.2063 334.774 -36.0208 334.997 -35.8353 335.221C-35.7828 335.27 -35.7557 335.32 -35.7032 335.37C-35.5185 335.568 -35.3593 335.767 -35.1624 335.952C-35.1361 335.976 -35.0967 336.013 -35.0705 336.038C-34.8727 336.248 -34.6495 336.458 -34.4518 336.668C-34.3993 336.718 -34.3468 336.767 -34.2942 336.816C-34.0973 337.001 -33.8873 337.198 -33.6782 337.37C-33.665 337.382 -33.6388 337.407 -33.6256 337.419C-33.3902 337.616 -33.1679 337.8 -32.9325 337.996C-32.88 338.045 -32.8152 338.081 -32.7627 338.131C-32.515 338.314 -32.2796 338.51 -32.0328 338.668C-24.4559 343.978 -17.3625 346.265 -12.8548 347.261C-11.6257 347.526 -10.6032 347.695 -9.7986 347.808C-12.0547 354.387 -14.632 360.862 -17.7765 367.101L-17.8361 367.218C-17.8843 367.296 -17.9194 367.387 -17.9676 367.465L-19.0175 369.494C-19.0175 369.494 -19.0175 369.494 -19.0166 369.519C-19.1008 369.663 -19.1718 369.818 -19.2559 369.962L-19.2918 370.027C-20.0218 371.367 -20.7649 372.696 -21.5466 374.013C-30.9753 389.868 -43.9646 403.417 -59.3459 413.51C-60.8383 414.481 -59.1006 416.631 -57.6204 415.674C-44.0171 406.753 -32.2221 395.096 -23.0948 381.602C-21.0007 378.503 -19.0756 375.295 -17.3045 372.041L-15.9312 369.427C-12.5203 362.795 -9.69056 355.89 -7.23464 348.832C-7.0386 348.991 -6.8303 349.137 -6.622 349.284C-6.58262 349.321 -6.51784 349.357 -6.47846 349.394C-6.21764 349.589 -5.94457 349.771 -5.67149 349.954C-5.64524 349.978 -5.61984 349.978 -5.59359 350.002C-5.33363 350.172 -5.07369 350.342 -4.81374 350.512C-4.76209 350.536 -4.73584 350.56 -4.69646 350.597C-4.42424 350.754 -4.16429 350.924 -3.89207 351.081C-3.84043 351.105 -3.77566 351.141 -3.73628 351.178C-3.46407 351.335 -3.20498 351.479 -2.93363 351.61C-2.89511 351.622 -2.85573 351.659 -2.81721 351.67C-2.54585 351.801 -2.29989 351.934 -2.02854 352.065C-1.99002 352.076 -1.97689 352.089 -1.95064 352.113C-1.67929 352.244 -1.39567 352.363 -1.13745 352.481C-1.0858 352.505 -1.03417 352.529 -0.98252 352.553C-0.712031 352.659 -0.453804 352.777 -0.171051 352.87C-0.119406 352.894 -0.0808772 352.905 -0.0292322 352.929C0.241257 353.035 0.524006 353.127 0.794495 353.233L0.80762 353.245C1.09037 353.338 1.37313 353.43 1.65588 353.523C1.70753 353.547 1.75831 353.545 1.80995 353.569C2.07958 353.649 2.34921 353.729 2.6311 353.796C2.69501 353.807 2.74666 353.831 2.79744 353.829C3.07933 353.896 3.34895 353.976 3.61771 354.031C3.6431 354.03 3.68163 354.041 3.69476 354.054C3.96352 354.108 4.22002 354.176 4.47565 354.219C4.51417 354.23 4.56496 354.228 4.60347 354.24C4.87224 354.294 5.15326 354.336 5.4089 354.378C5.47281 354.389 5.52359 354.387 5.5875 354.398C5.8554 354.427 6.12417 354.482 6.39207 354.511C6.43058 354.522 6.48137 354.521 6.51989 354.532C6.78779 354.561 7.0303 354.591 7.28508 354.608C7.31047 354.607 7.34898 354.619 7.37437 354.618C7.64227 354.647 7.90931 354.651 8.18948 354.667C8.24026 354.665 8.30417 354.675 8.35495 354.674C8.62199 354.677 8.87676 354.694 9.1438 354.698C9.19458 354.696 9.24536 354.694 9.29614 354.693C9.56318 354.696 9.83023 354.7 10.0973 354.704L10.1227 354.703C10.3897 354.706 10.669 354.697 10.9352 354.675C10.986 354.673 11.0367 354.672 11.0875 354.67C11.3414 354.661 11.6076 354.639 11.8615 354.631C11.9123 354.629 11.9631 354.627 12.0261 354.612C12.2923 354.59 12.5585 354.568 12.8115 354.534C12.8369 354.533 12.8623 354.533 12.8877 354.532C13.1285 354.511 13.3815 354.477 13.6346 354.442C13.6854 354.441 13.723 354.427 13.7738 354.425C14.0269 354.391 14.2799 354.356 14.5198 354.31C14.6564 354.216 14.7072 354.214 14.7703 354.199Z" fill="#3D4775"/>
<path d="M32.0972 405.783C32.0972 405.783 -70.267 511.77 -89.7074 604.885C-96.3076 636.479 -94.4266 661.509 -89.0431 680.787C-77.832 720.986 -28.5623 734.291 1.03513 705.124C15.2299 691.137 29.2422 670.408 39.1559 639.704C68.3616 549.221 32.0972 405.783 32.0972 405.783Z" fill="#2F8C91"/>
<path d="M-29.4982 649.575C-27.8306 643.223 -26.156 636.882 -24.4884 630.53C-1.16922 625.124 22.1571 619.728 45.486 614.314C45.629 613.554 45.772 612.794 45.8982 612.031C22.6418 617.421 -0.614621 622.81 -23.871 628.2C-22.2926 622.204 -20.7116 616.191 -19.1332 610.195C3.09507 604.664 25.5476 600.134 48.1519 596.63C48.2295 595.904 48.3238 595.18 48.4014 594.454C25.9156 597.915 3.60102 602.386 -18.5132 607.847C-16.9958 602.079 -15.4783 596.311 -13.9609 590.542C7.30449 586.234 28.5602 581.932 49.8256 577.624C49.8695 576.892 49.9134 576.161 49.9503 575.42C28.8538 579.693 7.74056 583.963 -13.3559 588.237C-11.7696 582.189 -10.1664 576.144 -8.58013 570.096C10.9197 564.346 30.6393 559.403 50.5299 555.304C50.5305 554.575 50.5381 553.855 50.529 553.133C30.8533 557.178 11.3442 562.039 -7.95214 567.697C-6.31282 561.473 -4.6735 555.249 -3.04126 549.016C14.5409 544.094 32.3144 539.94 50.2237 536.581C50.2048 535.866 50.1691 535.149 50.1503 534.434C32.4728 537.741 14.9362 541.809 -2.41592 546.634C-1.08398 541.566 0.257696 536.492 1.58964 531.424C17.297 526.327 33.2109 521.957 49.2852 518.331C49.2327 517.611 49.1872 516.901 49.1347 516.181C33.3214 519.733 17.6809 524.005 2.23266 528.984C3.85695 522.801 5.48125 516.619 7.10554 510.436C20.1276 504.784 33.6759 500.575 47.545 497.858C47.473 497.152 47.4011 496.447 47.322 495.732C33.774 498.376 20.5407 502.44 7.77946 507.851C8.33591 505.749 8.88529 503.637 9.44174 501.534C9.70792 501.259 9.84576 500.867 9.73145 500.436C10.1307 498.907 10.537 497.388 10.9362 495.859C21.9898 490.193 33.8928 486.609 46.1497 485.25C46.0609 484.542 45.9792 483.844 45.8905 483.136C34.0069 484.473 22.4559 487.839 11.6578 493.132C12.8803 488.496 14.093 483.867 15.3154 479.231C24.6933 475.336 34.3042 472.162 44.1118 469.722C44.0062 469.012 43.9077 468.311 43.8021 467.6C34.3351 469.952 25.0461 472.991 15.984 476.68C17.1128 472.372 18.2584 468.067 19.3872 463.759C25.9722 462.183 32.5404 460.605 39.1254 459.03C40.2073 458.766 41.313 458.515 42.3949 458.252C42.2796 457.548 42.1714 456.855 42.0632 456.161C40.4452 456.553 38.8326 456.91 37.2341 457.288C31.4894 458.659 25.7519 460.04 20.0072 461.411C20.9656 457.763 21.9212 454.131 22.8796 450.483C28.4946 448.054 34.2026 445.86 39.9983 443.934C39.8759 443.221 39.7438 442.515 39.6187 441.819C34.1954 443.618 28.8412 445.638 23.5729 447.883C24.6938 443.627 25.8049 439.377 26.9328 435.131C30.4684 433.744 34.0473 432.521 37.6839 431.483C37.5447 430.768 37.4028 430.069 37.2681 429.38C34.0083 430.318 30.7708 431.391 27.5891 432.605C28.2604 430.037 28.9387 427.478 29.61 424.91C31.6913 424.08 33.7656 423.241 35.8372 422.418C35.6909 421.693 35.5393 421.001 35.3948 420.32C33.6885 421.005 31.9822 421.691 30.2857 422.369C31.2899 418.534 32.3013 414.709 33.3152 410.867C32.5503 407.568 32.0939 405.783 32.0939 405.783C32.0939 405.783 30.8462 407.067 28.6151 409.482C27.4916 413.756 26.3681 418.029 25.2446 422.303C24.4165 420.25 23.4381 418.28 22.3456 416.379C21.8663 416.921 21.3773 417.469 20.8688 418.032C22.235 420.502 23.3995 423.107 24.319 425.851C23.5408 428.833 22.7459 431.813 21.9678 434.795C20.3559 430.793 18.4212 426.988 16.1637 423.378C15.6844 423.919 15.2122 424.47 14.7205 425.036C17.0737 428.862 19.0696 432.941 20.6656 437.213C20.7675 437.501 20.9551 437.679 21.1702 437.791C19.7216 443.28 18.2828 448.762 16.8343 454.251C13.5961 447.625 10.1226 441.13 6.44042 434.76C5.96558 435.329 5.48102 435.904 5.00353 436.49C8.92745 443.3 12.6037 450.266 16.0182 457.368C14.7242 462.3 13.4205 467.24 12.1265 472.173C7.53815 463.141 2.71714 454.223 -2.30554 445.441C-2.78302 446.027 -3.2437 446.615 -3.72383 447.217C1.52639 456.421 6.54842 465.766 11.3255 475.248C9.73914 481.296 8.14309 487.351 6.55678 493.398C0.869124 481.227 -5.27671 469.292 -11.8568 457.606C-12.3201 458.211 -12.7835 458.816 -13.2565 459.429C-6.45149 471.553 -0.119675 483.957 5.72743 496.601C4.68255 500.588 3.62793 504.582 2.58304 508.569C-5.81888 496.365 -14.2208 484.16 -22.6227 471.956C-23.0595 472.556 -23.4963 473.157 -23.9428 473.764C-15.3452 486.263 -6.73793 498.754 1.86672 511.262C-0.169176 518.998 -2.20508 526.734 -4.24098 534.47C-12.3823 517.226 -21.44 500.455 -31.3742 484.235C-31.8162 484.87 -32.2486 485.497 -32.6907 486.132C-22.5528 502.762 -13.3278 519.953 -5.07476 537.645C-6.93312 544.732 -8.79856 551.809 -10.6666 558.903C-22.347 541.226 -34.0344 523.54 -45.7147 505.864C-46.1258 506.521 -46.5439 507.168 -46.9453 507.818C-35.0906 525.758 -23.2359 543.699 -11.3714 561.632C-12.0807 564.335 -12.79 567.038 -13.5063 569.731C-14.3657 573.017 -15.2419 576.3 -16.1013 579.586C-29.2853 560.5 -42.4764 541.404 -55.6604 522.318C-56.0477 522.987 -56.4446 523.664 -56.8247 524.344C-43.4849 543.647 -30.1477 562.968 -16.8079 582.272C-18.1398 587.34 -19.4718 592.407 -20.8037 597.474C-36.1398 579.286 -51.4759 561.098 -66.8218 542.917C-67.1683 543.601 -67.5148 544.286 -67.8542 544.981C-52.473 563.211 -37.1014 581.449 -21.7202 599.679C-21.6326 599.781 -21.5397 599.848 -21.4467 599.915C-23.3554 607.161 -25.2544 614.399 -27.1631 621.645C-43.2371 601.488 -59.3012 581.324 -75.3751 561.168C-75.6862 561.902 -76.0071 562.643 -76.3182 563.377C-60.1593 583.653 -44.0004 603.928 -27.8318 624.196C-29.2626 629.626 -30.6838 635.049 -32.1147 640.479C-49.7676 622.75 -67.4373 605.019 -85.0903 587.29C-85.3297 588.061 -85.5594 588.826 -85.782 589.6C-68.0981 607.351 -50.4168 625.119 -32.7329 642.871C-34.2601 648.646 -35.7704 654.424 -37.2976 660.2C-56.0676 645.084 -73.9853 628.905 -90.9771 611.744C-91.1289 612.617 -91.2781 613.473 -91.4104 614.332C-74.4602 631.372 -56.5939 647.437 -37.8752 662.439C-40.3359 671.815 -42.8135 681.187 -45.2742 690.563C-62.1176 677.072 -78.3022 662.769 -93.8051 647.727C-93.7763 648.769 -93.7352 649.786 -93.687 650.813C-78.4869 665.474 -62.6244 679.41 -46.1519 692.572C-46.0519 692.648 -45.9492 692.708 -45.8342 692.744C-46.864 696.689 -47.9107 700.631 -48.9406 704.577C-62.8462 694.414 -76.7421 684.243 -90.6407 674.09C-90.4102 675.163 -90.1602 676.221 -89.9077 677.262C-76.4427 687.102 -62.9778 696.942 -49.5226 706.789C-50.5543 710.69 -51.5789 714.601 -52.6008 718.495C-51.0479 718.972 -49.4579 719.376 -47.8671 719.718C-47.58 718.638 -47.293 717.557 -47.0059 716.476C-32.1893 713.808 -17.3726 711.14 -2.56567 708.479C-1.53094 707.628 -0.521889 706.721 0.475644 705.776C-15.154 708.583 -30.7765 711.399 -46.4159 714.212C-45.4911 710.725 -44.5832 707.236 -43.6584 703.749C-25.1962 700.264 -6.73144 696.762 11.7307 693.277C12.3824 692.455 13.0296 691.606 13.6698 690.747C-5.23648 694.321 -24.1524 697.903 -43.0657 701.468C-41.6375 696.055 -40.219 690.649 -38.7908 685.236C-17.7763 681.662 3.23106 678.078 24.2455 674.504C24.6849 673.72 25.1242 672.935 25.5592 672.123C4.30585 675.74 -16.9404 679.366 -38.184 682.975C-36.9483 678.253 -35.6958 673.533 -34.4602 668.811C-34.4222 668.677 -34.3939 668.549 -34.356 668.414C-12.1743 663.465 10.2291 659.701 32.7771 657.12C33.098 656.379 33.4117 655.627 33.7184 654.866C11.0624 657.422 -11.4516 661.177 -33.7412 666.101C-33.5787 665.494 -33.4162 664.886 -33.2634 664.286C-33.2015 664.163 -33.1635 664.029 -33.1618 663.906C-32.1222 659.953 -31.0826 656.001 -30.0333 652.041C-6.66438 644.972 17.0085 639.058 40.9181 634.288C41.1309 633.521 41.3606 632.757 41.5664 631.98C17.5498 636.663 -6.12044 642.56 -29.4982 649.575Z" fill="#286F7F"/>
<path d="M-3.48424 537.294C-19.1279 534.873 -39.3394 544.187 -46.5047 547.844C-40.5941 539.218 -35.2587 530.456 -30.5254 521.558C21.8274 519.168 69.9034 491.766 69.9034 491.766C69.9034 491.766 58.2795 495.819 25.4833 499.87C-3.46506 503.451 -22.8664 515.125 -29.5672 519.738C-25.1949 511.354 -21.3578 502.88 -18.0668 494.323C-16.8742 491.221 -15.758 488.105 -14.7125 484.987C-0.792571 476.996 23.5584 482.46 46.3666 477.999C63.5322 474.648 79.1822 448.703 79.1822 448.703C79.1822 448.703 62.8868 470.441 36.1425 467.764C14.782 465.626 -6.79575 479.208 -14.6394 484.764C-11.329 474.835 -8.74932 464.816 -6.92075 454.746C-2.13222 453.882 13.8505 450.837 29.5019 446.184C47.9396 440.694 87.1461 420.749 87.1461 420.749C87.1461 420.749 69.936 421.306 46.3292 427.062C27.2578 431.719 0.0397912 449.383 -6.76663 453.929C-5.28198 445.555 -4.30353 437.146 -3.84192 428.706C0.871942 427.296 16.8094 422.452 33.1588 416.576C52.6366 409.571 96.6784 378.075 96.6784 378.075C96.6784 378.075 82.2136 383.247 51.1713 394.005C24.4865 403.259 1.98664 422.54 -3.8061 427.774C-3.42213 420.164 -3.45142 412.537 -3.90461 404.897C-1.16073 399.427 4.58375 382.999 -1.69588 349.263C-9.07648 309.587 -14.5073 297.448 -14.5073 297.448C-14.5073 297.448 -26.0768 370.073 -6.70893 404.523C-6.28238 411.449 -6.22482 418.233 -6.46562 424.878C-11.4512 418.419 -29.9107 395.517 -54.6393 377.307C-83.7215 355.898 -93.1922 350.58 -93.1922 350.58C-93.1922 350.58 -53.6772 396.118 -34.6104 408.955C-19.5644 419.078 -9.92084 424.228 -6.51759 425.959C-6.91208 435.034 -7.90809 443.846 -9.38761 452.358C-14.3437 446.107 -33.9847 422.823 -56.8105 415.021C-83.2765 405.973 -96.7028 387.314 -96.7028 387.314C-96.7028 387.314 -88.3486 408.26 -55.7586 425.758C-28.7248 440.277 -13.7994 450.076 -9.49369 453.007C-11.4768 464.175 -14.2932 474.833 -17.7436 484.939C-21.5279 479.103 -34.1127 461.609 -54.7791 451.152C-79.8611 438.457 -104.503 415.007 -104.503 415.007C-104.503 415.007 -80.9226 451.627 -52.0166 470.204C-31.1699 483.603 -21.9416 486.351 -18.4055 486.843C-22.4182 498.32 -27.2231 509.082 -32.437 519.065C-35.0059 513.649 -44.4571 496.187 -66.2423 479.603C-92.4474 459.649 -112.76 444.264 -112.76 444.264C-112.76 444.264 -63.8789 508.771 -33.0751 520.297C-38.325 530.189 -43.9733 539.297 -49.7017 547.567C-51.4017 542.597 -57.7197 527.777 -75.2708 516.423C-96.6603 502.589 -102.99 493.273 -109.805 479.843C-109.805 479.843 -100.401 509.857 -85.6986 520.961C-68.4992 533.946 -54.9484 539.349 -49.9131 547.869C-53.7407 553.392 -57.5991 558.525 -61.3635 563.269C-91.6749 601.342 -123.746 622.95 -124.069 623.175C-124.709 623.609 -124.894 624.471 -124.485 625.122C-124.427 625.202 -124.37 625.282 -124.302 625.355C-123.851 625.801 -123.137 625.887 -122.57 625.523C-122.241 625.309 -89.8627 603.498 -59.2704 565.097C-55.1111 559.878 -51.1824 554.592 -47.4676 549.245C-40.9394 549.177 -17.1033 548.986 -1.42886 549.902C16.8733 550.97 51.7544 522.761 51.7544 522.761C51.7544 522.761 15.8671 540.291 -3.48424 537.294Z" fill="#E5674E"/>
<path d="M166.098 144.213C166.098 144.213 138 -20.8022 64.8169 -84.6998C39.9752 -106.383 15.4115 -115.38 -6.20927 -117.784C-51.3029 -122.815 -97.5729 -72.0789 -90.8243 -25.0357C-87.5883 -2.46637 -77.9669 22.899 -56.2357 48.0055C7.76789 121.949 166.098 144.213 166.098 144.213Z" fill="#BAE3DD"/>
<path d="M-18.1868 -35.3694C-13.4338 -30.6089 -8.67968 -25.8711 -3.92667 -21.1106C-14.9496 8.12051 -25.984 37.3653 -37.007 66.5964C-36.4031 67.102 -35.7878 67.594 -35.1725 68.086C-24.1747 38.9278 -13.1769 9.76956 -2.19066 -19.375C2.30473 -14.8878 6.79903 -10.3778 11.2944 -5.89062C1.13036 22.1463 -10.0965 49.9877 -22.4036 77.5468C-21.785 77.9704 -21.1664 78.394 -20.5582 78.8085C-8.31287 51.4089 2.90633 23.7271 13.0512 -4.13673C17.3711 0.172788 21.6898 4.50508 26.0096 8.8146C15.384 35.1884 4.74691 61.5759 -5.8787 87.9498C-5.22562 88.3324 -4.58293 88.7058 -3.91836 89.0747C6.63284 62.8969 17.184 36.719 27.7352 10.5412C32.2607 15.0785 36.7873 19.593 41.3128 24.1303C33.2335 49.1272 24.261 74.0059 14.3975 98.7208C15.0642 99.0441 15.7414 99.3766 16.4082 99.6999C26.1825 75.263 35.0877 50.6577 43.11 25.9434C47.7706 30.5991 52.4416 35.264 57.0907 39.9334C49.5684 62.3555 41.1967 84.6502 31.9892 106.758C32.6686 107.045 33.3583 107.341 34.0377 107.628C43.133 85.8253 51.4144 63.8314 58.8672 41.7283C62.6592 45.5276 66.4627 49.3132 70.2547 53.1125C64.186 73.4608 57.2885 93.7 49.5958 113.812C50.2981 114.071 51.0005 114.331 51.6913 114.604C59.2697 94.8431 66.0757 74.9275 72.0727 54.9438C76.7021 59.5723 81.3315 64.2007 85.9609 68.8291C82.2494 86.3286 76.8395 103.788 69.8296 120.96C70.533 121.197 71.2479 121.42 71.9513 121.657C78.8228 104.885 84.1359 87.8637 87.8933 70.7606C89.4746 72.3368 91.0454 73.9039 92.6151 75.4938C92.6922 75.9176 92.957 76.2684 93.4421 76.3138C94.5787 77.4527 95.7257 78.6007 96.8622 79.7396C94.5151 94.9921 89.6539 110.273 82.4812 124.975C83.1961 125.199 83.9121 125.399 84.627 125.622C91.5623 111.352 96.3889 96.5637 98.8974 81.785C102.369 85.2563 105.831 88.7185 109.303 92.1898C106.47 104.713 102.794 117.186 98.3223 129.555C99.0602 129.751 99.7762 129.951 100.503 130.16C104.835 118.215 108.402 106.193 111.215 94.1031C114.438 97.333 117.662 100.563 120.887 103.77C117.825 112.032 114.763 120.318 111.701 128.58C111.202 129.948 110.681 131.319 110.182 132.687C110.91 132.873 111.637 133.06 112.355 133.237C113.102 131.209 113.882 129.186 114.628 127.18C117.304 119.957 119.968 112.747 122.644 105.524C125.372 108.248 128.1 110.972 130.828 113.696C129.231 121.248 127.319 128.785 125.139 136.3C125.888 136.482 126.638 136.642 127.367 136.805C129.428 129.755 131.229 122.714 132.771 115.637C135.953 118.83 139.137 122.001 142.319 125.195C141.184 129.875 139.844 134.541 138.321 139.19C139.071 139.349 139.822 139.508 140.552 139.649C141.933 135.47 143.142 131.282 144.21 127.09C146.132 129.012 148.054 130.935 149.976 132.857C149.323 135.609 148.66 138.376 148.018 141.137C148.79 141.292 149.542 141.429 150.271 141.57C150.803 139.305 151.356 137.035 151.887 134.77C154.76 137.645 157.622 140.51 160.495 143.385C164.117 143.949 166.097 144.212 166.097 144.212C166.097 144.212 165.761 142.208 165.047 138.567C161.855 135.364 158.651 132.175 155.448 128.964C157.93 128.931 160.433 128.68 162.943 128.269C162.776 127.481 162.609 126.669 162.411 125.831C159.171 126.315 155.946 126.48 152.771 126.308C150.539 124.067 148.306 121.848 146.075 119.607C150.898 119.537 155.786 119.002 160.675 118.017C160.485 117.233 160.307 116.435 160.13 115.615C154.959 116.615 149.791 117.095 144.716 117.014C144.38 117.005 144.071 117.137 143.824 117.324C139.711 113.22 135.609 109.102 131.496 104.997C139.883 104.229 148.307 103.137 156.779 101.731C156.579 100.939 156.38 100.123 156.159 99.3119C147.12 100.791 138.132 101.91 129.16 102.665C125.461 98.9702 121.761 95.2756 118.084 91.5766C129.646 90.3154 141.244 88.7535 152.868 86.9045C152.647 86.0934 152.425 85.3052 152.193 84.485C140.024 86.4253 127.882 88.0329 115.778 89.2942C111.253 84.7569 106.716 80.2333 102.201 75.7051C117.427 74.5933 132.761 72.8388 148.166 70.4829C147.924 69.6764 147.681 68.8699 147.438 68.0634C131.477 70.4788 115.602 72.2333 99.8143 73.3044C96.8285 70.3068 93.8415 67.3321 90.8661 64.3436C107.997 60.128 125.117 55.9032 142.247 51.6875C141.992 50.9175 141.736 50.1475 141.471 49.3683C123.923 53.6935 106.387 58.0049 88.8506 62.3392C83.0639 56.5537 77.2667 50.7591 71.48 44.9736C93.1011 43.3175 114.925 40.3673 136.852 36.1775C136.576 35.3893 136.278 34.6056 135.991 33.8082C113.553 38.0482 91.2311 40.9895 69.0926 42.5956C63.7921 37.2838 58.4801 31.9858 53.1899 26.6831C77.6622 21.1392 102.134 15.5953 126.618 10.0378C126.287 9.2723 125.966 8.51595 125.634 7.75049C100.801 13.3811 75.9552 19.0254 51.1214 24.6559C49.1069 22.6287 47.081 20.6152 45.0666 18.588C42.6075 16.1235 40.1484 13.6589 37.6882 11.2172C64.5209 4.56066 91.3316 -2.09126 118.164 -8.74774C117.799 -9.49496 117.445 -10.2331 117.08 -10.9803C89.9517 -4.25081 62.8232 2.47869 35.6727 9.21274C31.8807 5.41343 28.0772 1.6278 24.2852 -2.17151C51.7432 -11.699 79.2232 -21.2311 106.681 -30.7586C106.282 -31.4648 105.883 -32.171 105.472 -32.8635C77.9368 -23.3087 50.4016 -13.7538 22.8665 -4.19891C22.7122 -4.14418 22.5787 -4.07123 22.466 -3.98006C17.0408 -9.40113 11.6156 -14.8222 6.2019 -20.2569C36.0082 -29.7441 65.804 -39.2405 95.6103 -48.7276C95.1454 -49.4202 94.6805 -50.1127 94.2041 -50.7915C64.2436 -41.2496 34.2612 -31.7031 4.3007 -22.1611C0.239584 -26.2201 -3.82152 -30.2791 -7.89303 -34.3472C20.7538 -46.7504 49.3788 -59.1491 78.0257 -71.5524C77.4814 -72.1719 76.9154 -72.787 76.3597 -73.3929C47.6794 -60.9714 18.9992 -48.5499 -9.66953 -36.142C-13.9997 -40.4607 -18.3185 -44.793 -22.6487 -49.1116C4.318 -63.9614 31.7019 -77.3531 59.3603 -89.2457C58.6619 -89.8106 57.9519 -90.3617 57.2523 -90.9038C29.7345 -79.0067 2.51304 -65.615 -24.3224 -50.7926C-31.3496 -57.8081 -38.3549 -64.8282 -45.3822 -71.8437C-21.2496 -85.1889 3.18764 -97.4359 27.8419 -108.567C26.8557 -109.004 25.8788 -109.409 24.9019 -109.814C0.819815 -98.8706 -23.0545 -86.8425 -46.6325 -73.7709C-46.7774 -73.6842 -46.8901 -73.5931 -47.0143 -73.4882C-49.97 -76.4356 -52.9142 -79.3967 -55.87 -82.3442C-36.853 -93.8104 -17.837 -105.254 1.17995 -116.72C0.0203461 -116.929 -1.11847 -117.12 -2.28027 -117.284C-20.6945 -106.192 -39.1087 -95.0993 -57.5343 -83.9932C-60.4589 -86.9133 -63.3834 -89.8334 -66.2965 -92.7672C-67.8238 -91.1855 -69.2888 -89.5491 -70.6914 -87.8581C-69.8748 -87.0472 -69.0686 -86.2455 -68.2635 -85.4209C-75.9851 -67.1865 -83.6951 -48.9658 -91.4167 -30.7314C-91.3299 -29.1593 -91.1889 -27.5873 -90.9926 -26.038C-82.8552 -45.2613 -74.7064 -64.4983 -66.569 -83.7217C-63.9655 -81.1068 -61.3402 -78.4965 -58.7367 -75.8816C-68.1936 -53.0899 -77.6506 -30.2981 -87.1295 -7.50174C-86.8041 -6.3854 -86.4683 -5.25996 -86.1107 -4.13907C-76.4212 -27.4869 -66.7317 -50.8346 -57.0318 -74.1733C-52.9811 -70.1235 -48.9304 -66.0736 -44.8797 -62.0237C-56.0172 -36.2649 -67.1444 -10.497 -78.2819 15.2618C-77.857 16.1092 -77.4216 16.9658 -76.9759 17.8315C-65.7158 -8.22356 -54.4557 -34.2786 -43.1956 -60.3336C-39.6612 -56.8077 -36.1279 -53.2589 -32.5935 -49.7329C-32.4896 -49.6418 -32.3971 -49.5371 -32.3047 -49.4323C-42.9731 -21.7187 -54.8853 5.73549 -68.0036 32.8209C-67.5283 33.5226 -67.0415 34.2105 -66.5662 34.9121C-53.356 7.71728 -41.3404 -19.86 -30.5906 -47.6921C-30.1355 -47.2456 -29.6815 -46.7764 -29.2265 -46.33C-29.157 -46.1978 -29.0531 -46.1067 -28.9366 -46.0521C-25.9705 -43.0955 -23.0158 -40.1253 -20.0497 -37.1688C-29.5625 -7.13613 -40.3453 22.7329 -52.3835 52.3562C-51.8163 52.9484 -51.2491 53.5406 -50.6819 54.1329C-38.5573 24.5141 -27.7422 -5.35038 -18.1868 -35.3694Z" fill="#97C9CE"/>
<path d="M-41.7196 51.9815C-56.8667 58.4929 -79.4032 54.2618 -87.4733 52.412C-79.4625 59.6232 -72.0122 67.144 -65.137 74.937C-11.9362 63.823 42.936 79.1576 42.936 79.1576C42.936 79.1576 30.289 78.0541 -3.64305 82.4293C-33.5875 86.2926 -55.8897 79.4727 -63.7181 76.5215C-57.3192 83.8887 -51.4391 91.4971 -46.0764 99.3285C-44.1312 102.159 -42.279 105.036 -40.4811 107.925C-24.5918 112.435 -1.39747 100.573 22.5703 99.192C40.6301 98.1593 62.5476 120.409 62.5476 120.409C62.5476 120.409 40.9756 102.58 14.7341 112.214C-6.21983 119.918 -31.1672 111.724 -40.3742 108.117C-34.6742 117.322 -29.6933 126.822 -25.4282 136.58C-20.4069 136.22 -3.62261 135.158 13.2343 135.843C33.0807 136.647 77.2439 146.728 77.2439 146.728C77.2439 146.728 59.812 150.63 34.7032 150.888C14.4263 151.113 -17.1655 140.225 -25.0916 137.373C-21.6003 145.482 -18.6038 153.76 -16.1196 162.209C-11.0432 162.416 6.12406 163.203 23.9685 164.942C45.2422 167.041 97.0321 187.597 97.0321 187.597C97.0321 187.597 81.2616 186.09 47.4892 183.209C18.4552 180.74 -8.75974 167.001 -15.8346 163.178C-13.6309 170.802 -11.8467 178.55 -10.4645 186.422C-6.39367 191.267 3.31143 206.435 5.05359 242.3C7.11282 284.469 4.57476 298.191 4.57476 298.191C4.57476 298.191 -24.4261 227.496 -13.1934 187.543C-14.4119 180.411 -15.97 173.501 -17.8166 166.835C-21.279 174.686 -34.36 202.697 -54.861 227.559C-78.9729 256.813 -87.2095 264.648 -87.2095 264.648C-87.2095 264.648 -58.3836 208.225 -42.2879 190.253C-29.5909 176.095 -21.1319 168.353 -18.1063 165.72C-20.6726 156.611 -23.7758 147.941 -27.307 139.685C-30.801 147.296 -44.9586 176.022 -66.0401 189.842C-90.4811 205.865 -99.5045 228.276 -99.5045 228.276C-99.5045 228.276 -96.1245 204.861 -67.5503 178.675C-43.853 156.943 -31.2061 143.142 -27.5701 139.061C-32.237 128.25 -37.6092 118.169 -43.4898 108.802C-45.9072 115.699 -54.3587 136.695 -72.6346 152.666C-94.8047 172.041 -113.974 202.197 -113.974 202.197C-113.974 202.197 -99.0328 158.931 -74.4227 132.607C-56.6722 113.613 -48.0554 108.443 -44.6251 107.026C-51.4049 96.4139 -58.8023 86.7404 -66.4411 77.9688C-67.7275 84.1389 -73.0488 104.288 -90.9903 126.764C-112.557 153.792 -129.288 174.659 -129.288 174.659C-129.288 174.659 -95.5881 96.5576 -67.3742 76.9016C-75.0035 68.2215 -82.8743 60.4433 -90.6104 53.53C-91.1419 59.01 -93.9309 75.6996 -108.859 91.7508C-127.052 111.319 -131.18 122.407 -134.828 137.801C-134.828 137.801 -132.561 104.907 -120.438 89.8416C-106.256 72.2151 -93.9378 63.2245 -90.9077 53.2844C-96.0656 48.6815 -101.17 44.4645 -106.113 40.6254C-145.683 9.81881 -183.082 -3.79344 -183.442 -3.93621C-184.199 -4.2071 -184.585 -5.04134 -184.32 -5.81408C-184.292 -5.92029 -184.232 -6.00519 -184.188 -6.09176C-183.835 -6.65677 -183.135 -6.9352 -182.481 -6.71024C-182.102 -6.58378 -144.343 7.17124 -104.42 38.2104C-98.9963 42.4214 -93.7804 46.7759 -88.7696 51.2379C-82.1972 49.6283 -58.1857 43.6456 -42.6439 38.6582C-24.5065 32.8461 17.3058 52.4233 17.3058 52.4233C17.3058 52.4233 -22.9722 43.9424 -41.7196 51.9815Z" fill="#FCF4DF"/>
<path d="M78.2278 545.583C78.2278 545.583 -57.1812 601.277 -111.603 678.81C-130.072 705.115 -138.193 728.84 -140.846 748.71C-146.391 790.135 -106.512 822.332 -67.9417 807.585C-49.444 800.513 -28.4616 787.183 -7.3087 763.038C55.0183 691.883 78.2278 545.583 78.2278 545.583Z" fill="#1A4143"/>
<path d="M-74.0528 744.244C-70.0279 739.094 -66.0004 733.956 -61.9755 728.806C-38.4975 733.308 -15.017 737.822 8.47268 742.322C8.90255 741.683 9.33242 741.043 9.74793 740.395C-13.6659 735.903 -37.0798 731.41 -60.4936 726.918C-56.6902 722.058 -52.8775 717.183 -49.074 712.323C-26.546 716.268 -4.20642 721.223 17.8688 727.181C18.2254 726.546 18.5964 725.92 18.9531 725.285C-2.9966 719.336 -25.1871 714.384 -47.5831 710.421C-43.925 705.745 -40.267 701.069 -36.6089 696.393C-15.4432 701.069 5.71065 705.747 26.8763 710.424C27.2042 709.77 27.5321 709.117 27.8574 708.452C6.8604 703.812 -14.151 699.163 -35.1481 694.523C-31.3171 689.618 -27.4717 684.723 -23.6407 679.819C-3.52464 682.456 16.4751 685.923 36.2996 690.233C36.587 689.564 36.877 688.908 37.1526 688.241C17.5464 683.968 -2.22844 680.511 -22.1222 677.873C-18.1733 672.828 -14.2244 667.784 -10.2781 662.727C7.75617 665.346 25.6637 668.748 43.3831 672.933C43.6469 672.269 43.8964 671.597 44.1602 670.933C26.6736 666.794 9.01706 663.41 -8.76873 660.796C-5.55615 656.687 -2.33179 652.576 0.880795 648.468C17.2674 650.165 33.5575 652.613 49.7013 655.81C49.9364 655.128 50.174 654.458 50.4091 653.776C34.5334 650.618 18.5323 648.191 2.42944 646.49C6.34822 641.477 10.267 636.465 14.1858 631.452C28.3321 631.551 42.3925 633.187 56.1603 636.321C56.3718 635.645 56.5834 634.969 56.7923 634.28C43.3474 631.209 29.6323 629.568 15.8196 629.354C17.156 627.651 18.4898 625.936 19.8261 624.233C20.1781 624.088 20.4584 623.785 20.5232 623.343C21.4901 622.103 22.4596 620.874 23.4265 619.633C35.776 618.92 48.0842 620.462 59.8413 624.189C60.0384 623.504 60.2382 622.83 60.4354 622.144C49.0286 618.549 37.1285 616.95 25.1599 617.424C28.1026 613.667 31.0335 609.912 33.9761 606.155C44.0946 606.387 54.1427 607.376 64.0824 609.117C64.2652 608.422 64.4506 607.739 64.6334 607.045C55.0402 605.361 45.3399 604.379 35.5916 604.086C38.3194 600.592 41.0616 597.108 43.7895 593.614C50.4385 594.84 57.0731 596.058 63.7222 597.284C64.8164 597.482 65.9276 597.7 67.0219 597.897C67.1929 597.205 67.3665 596.525 67.5402 595.845C65.9047 595.548 64.2876 595.221 62.6757 594.919C56.8764 593.846 51.0797 592.785 45.2804 591.712C47.5929 588.753 49.8962 585.81 52.2087 582.851C58.3051 582.902 64.3945 583.205 70.4586 583.79C70.6271 583.086 70.7837 582.385 70.943 581.695C65.2698 581.145 59.5727 580.826 53.8661 580.748C56.5664 577.298 59.2549 573.85 61.9578 570.413C65.7407 570.574 69.4985 570.905 73.2363 571.429C73.3904 570.715 73.5353 570.017 73.6828 569.33C70.3293 568.868 66.9429 568.539 63.5523 568.361C65.177 566.278 66.8042 564.206 68.4288 562.122C70.6609 562.206 72.8904 562.277 75.1107 562.363C75.2622 561.638 75.3953 560.942 75.531 560.258C73.6991 560.195 71.8671 560.132 70.0469 560.065C72.4747 556.955 74.9051 553.856 77.3447 550.743C77.942 547.405 78.2259 545.583 78.2259 545.583C78.2259 545.583 76.5785 546.255 73.5859 547.565C70.8764 551.03 68.167 554.494 65.4575 557.959C65.5066 555.74 65.3856 553.535 65.1326 551.349C64.4809 551.651 63.8175 551.955 63.1305 552.266C63.41 555.086 63.4515 557.948 63.2144 560.838C61.329 563.258 59.4293 565.669 57.5439 568.089C57.6419 563.764 57.3672 559.488 56.7197 555.261C56.068 555.563 55.4189 555.877 54.7463 556.196C55.3961 560.661 55.6194 565.213 55.4007 569.779C55.3806 570.085 55.4823 570.325 55.635 570.515C52.1499 574.963 48.6766 579.408 45.1915 583.855C44.8325 576.463 44.2067 569.095 43.3402 561.757C42.682 562.086 42.0119 562.417 41.3445 562.761C42.2586 570.601 42.885 578.483 43.2184 586.383C40.0936 590.384 36.957 594.387 33.8322 598.387C33.183 588.239 32.2763 578.102 31.1315 568.007C30.4641 568.35 29.811 568.703 29.1344 569.061C30.3216 579.635 31.2447 590.245 31.8891 600.883C28.0581 605.787 24.2154 610.694 20.3844 615.599C19.9638 602.124 19.0307 588.682 17.6018 575.291C16.9395 575.658 16.2773 576.025 15.6033 576.395C17.0654 590.28 17.9848 604.228 18.3653 618.2C15.8406 621.434 13.3041 624.67 10.7793 627.904C7.88636 613.298 4.9934 598.693 2.10043 584.087C1.46434 584.461 0.828245 584.834 0.18038 585.211C3.1369 600.165 6.1052 615.117 9.06432 630.084C4.15767 636.354 -0.748988 642.625 -5.65564 648.896C-6.32794 629.773 -8.02555 610.712 -10.7421 591.801C-11.3965 592.204 -12.0392 592.604 -12.6936 593.007C-9.95165 612.377 -8.26647 631.892 -7.66809 651.471C-12.1568 657.218 -16.6481 662.953 -21.1486 668.703C-24.8912 647.747 -28.6364 626.78 -32.379 605.824C-33.0139 606.26 -33.6514 606.684 -34.2745 607.118C-30.4761 628.386 -26.6778 649.655 -22.8676 670.921C-24.58 673.113 -26.2925 675.305 -28.0075 677.485C-30.0867 680.151 -32.1804 682.807 -34.2597 685.473C-38.8246 662.614 -43.3921 639.743 -47.957 616.883C-48.5749 617.34 -49.2046 617.8 -49.8199 618.27C-45.1979 641.391 -40.585 664.528 -35.9629 687.65C-39.1755 691.759 -42.3881 695.867 -45.6007 699.975C-52.4893 677.067 -59.3778 654.158 -66.2782 631.252C-66.8648 631.739 -67.4513 632.227 -68.0353 632.726C-61.122 655.692 -54.2204 678.661 -47.3071 701.626C-47.2667 701.755 -47.208 701.854 -47.1493 701.953C-51.7468 707.826 -56.3324 713.696 -60.9299 719.569C-67.7198 694.555 -74.498 669.538 -81.288 644.524C-81.8616 645.072 -82.447 645.622 -83.0206 646.169C-76.1994 671.326 -69.3783 696.483 -62.5453 721.638C-65.9911 726.039 -69.4251 730.437 -72.8709 734.838C-82.0616 711.41 -91.2666 687.974 -100.457 664.546C-100.98 665.157 -101.491 665.765 -101.999 666.385C-92.7889 689.845 -83.5879 713.321 -74.3777 736.781C-78.0475 741.46 -81.7029 746.148 -85.3728 750.826C-96.6141 729.343 -106.657 707.23 -115.465 684.592C-115.948 685.332 -116.421 686.056 -116.88 686.79C-108.062 709.3 -98.0215 731.289 -86.7825 752.647C-92.723 760.249 -98.6777 767.842 -104.618 775.444C-114.734 756.234 -123.928 736.545 -132.207 716.456C-132.59 717.423 -132.953 718.372 -133.312 719.334C-125.161 738.951 -116.118 758.173 -106.212 776.931C-106.151 777.042 -106.08 777.139 -105.989 777.218C-108.483 780.42 -110.992 783.612 -113.487 786.813C-122.222 771.847 -130.945 756.878 -139.678 741.924C-139.889 743.002 -140.076 744.074 -140.254 745.131C-131.796 759.622 -123.337 774.113 -114.89 788.607C-117.369 791.767 -119.845 794.939 -122.312 798.096C-121.078 799.164 -119.781 800.18 -118.459 801.14C-117.771 800.265 -117.083 799.39 -116.396 798.515C-101.78 802.079 -87.1639 805.644 -72.5598 809.211C-71.2778 808.85 -69.9969 808.427 -68.7121 807.965C-84.1266 804.198 -99.5386 800.442 -114.965 796.677C-112.747 793.854 -110.543 791.021 -108.325 788.197C-90.0499 792.492 -71.7658 796.771 -53.4908 801.066C-52.5708 800.576 -51.6442 800.059 -50.7202 799.531C-69.437 795.139 -88.1656 790.749 -106.885 786.345C-103.448 781.959 -100.024 777.575 -96.5869 773.189C-75.9399 778.437 -55.2955 783.673 -34.6486 788.922C-33.9377 788.38 -33.2268 787.838 -32.5093 787.27C-53.3916 781.964 -74.2713 776.669 -95.1418 771.36C-92.1532 767.53 -89.1503 763.709 -86.1618 759.878C-86.074 759.77 -85.998 759.664 -85.9102 759.556C-63.6536 764.016 -41.6603 769.654 -19.9995 776.435C-19.4142 775.885 -18.8314 775.323 -18.2513 774.749C-40.0008 767.901 -62.0921 762.211 -84.4376 757.684C-84.0498 757.192 -83.6619 756.7 -83.2859 756.212C-83.1812 756.125 -83.0934 756.016 -83.0435 755.904C-80.5371 752.7 -78.0308 749.496 -75.5126 746.289C-51.3354 749.287 -27.3339 753.467 -3.56565 758.792C-3.06911 758.175 -2.55821 757.567 -2.06427 756.938C-25.8965 751.49 -49.8888 747.295 -74.0528 744.244Z" fill="#2F8C91"/>
</g>
<defs>
<clipPath id="clip0_8_2">
<rect width="667" height="169" fill="white" transform="translate(0 667) rotate(-90)"/>
</clipPath>
</defs>
</svg>
